<svg aria-roledescription="flowchart-v2" role="graphics-document document" viewBox="-8 -8 681.580078125 785.6640625" style="max-width: 681.58px; background-color: transparent;" xmlns:xlink="http://www.w3.org/1999/xlink" xmlns="http://www.w3.org/2000/svg" width="100%" id="my-svg"><style>#my-svg{font-family:"trebuchet ms",verdana,arial,sans-serif;font-size:16px;fill:#333;}#my-svg .error-icon{fill:#552222;}#my-svg .error-text{fill:#552222;stroke:#552222;}#my-svg .edge-thickness-normal{stroke-width:2px;}#my-svg .edge-thickness-thick{stroke-width:3.5px;}#my-svg .edge-pattern-solid{stroke-dasharray:0;}#my-svg .edge-pattern-dashed{stroke-dasharray:3;}#my-svg .edge-pattern-dotted{stroke-dasharray:2;}#my-svg .marker{fill:#333333;stroke:#333333;}#my-svg .marker.cross{stroke:#333333;}#my-svg svg{font-family:"trebuchet ms",verdana,arial,sans-serif;font-size:16px;}#my-svg .label{font-family:"trebuchet ms",verdana,arial,sans-serif;color:#333;}#my-svg .cluster-label text{fill:#333;}#my-svg .cluster-label span,#my-svg p{color:#333;}#my-svg .label text,#my-svg span,#my-svg p{fill:#333;color:#333;}#my-svg .node rect,#my-svg .node circle,#my-svg .node ellipse,#my-svg .node polygon,#my-svg .node path{fill:#ECECFF;stroke:#9370DB;stroke-width:1px;}#my-svg .flowchart-label text{text-anchor:middle;}#my-svg .node .katex path{fill:#000;stroke:#000;stroke-width:1px;}#my-svg .node .label{text-align:center;}#my-svg .node.clickable{cursor:pointer;}#my-svg .arrowheadPath{fill:#333333;}#my-svg .edgePath .path{stroke:#333333;stroke-width:2.0px;}#my-svg .flowchart-link{stroke:#333333;fill:none;}#my-svg .edgeLabel{background-color:#e8e8e8;text-align:center;}#my-svg .edgeLabel rect{opacity:0.5;background-color:#e8e8e8;fill:#e8e8e8;}#my-svg .labelBkg{background-color:rgba(232, 232, 232, 0.5);}#my-svg .cluster rect{fill:#ffffde;stroke:#aaaa33;stroke-width:1px;}#my-svg .cluster text{fill:#333;}#my-svg .cluster span,#my-svg p{color:#333;}#my-svg div.mermaidTooltip{position:absolute;text-align:center;max-width:200px;padding:2px;font-family:"trebuchet ms",verdana,arial,sans-serif;font-size:12px;background:hsl(80, 100%, 96.2745098039%);border:1px solid #aaaa33;border-radius:2px;pointer-events:none;z-index:100;}#my-svg .flowchartTitleText{text-anchor:middle;font-size:18px;fill:#333;}#my-svg :root{--mermaid-font-family:"trebuchet ms",verdana,arial,sans-serif;}</style><g><marker orient="auto" markerHeight="12" markerWidth="12" markerUnits="userSpaceOnUse" refY="5" refX="6" viewBox="0 0 10 10" class="marker flowchart" id="my-svg_flowchart-pointEnd"><path style="stroke-width: 1; stroke-dasharray: 1, 0;" class="arrowMarkerPath" d="M 0 0 L 10 5 L 0 10 z"/></marker><marker orient="auto" markerHeight="12" markerWidth="12" markerUnits="userSpaceOnUse" refY="5" refX="4.5" viewBox="0 0 10 10" class="marker flowchart" id="my-svg_flowchart-pointStart"><path style="stroke-width: 1; stroke-dasharray: 1, 0;" class="arrowMarkerPath" d="M 0 5 L 10 10 L 10 0 z"/></marker><marker orient="auto" markerHeight="11" markerWidth="11" markerUnits="userSpaceOnUse" refY="5" refX="11" viewBox="0 0 10 10" class="marker flowchart" id="my-svg_flowchart-circleEnd"><circle style="stroke-width: 1; stroke-dasharray: 1, 0;" class="arrowMarkerPath" r="5" cy="5" cx="5"/></marker><marker orient="auto" markerHeight="11" markerWidth="11" markerUnits="userSpaceOnUse" refY="5" refX="-1" viewBox="0 0 10 10" class="marker flowchart" id="my-svg_flowchart-circleStart"><circle style="stroke-width: 1; stroke-dasharray: 1, 0;" class="arrowMarkerPath" r="5" cy="5" cx="5"/></marker><marker orient="auto" markerHeight="11" markerWidth="11" markerUnits="userSpaceOnUse" refY="5.2" refX="12" viewBox="0 0 11 11" class="marker cross flowchart" id="my-svg_flowchart-crossEnd"><path style="stroke-width: 2; stroke-dasharray: 1, 0;" class="arrowMarkerPath" d="M 1,1 l 9,9 M 10,1 l -9,9"/></marker><marker orient="auto" markerHeight="11" markerWidth="11" markerUnits="userSpaceOnUse" refY="5.2" refX="-1" viewBox="0 0 11 11" class="marker cross flowchart" id="my-svg_flowchart-crossStart"><path style="stroke-width: 2; stroke-dasharray: 1, 0;" class="arrowMarkerPath" d="M 1,1 l 9,9 M 10,1 l -9,9"/></marker><g class="root"><g class="clusters"/><g class="edgePaths"><path marker-end="url(#my-svg_flowchart-pointEnd)" style="fill:none;" class="edge-thickness-normal edge-pattern-solid flowchart-link LS-A LE-B" id="L-A-B-0" d="M319.254,33.5L319.254,37.667C319.254,41.833,319.254,50.167,319.32,57.7C319.386,65.234,319.518,71.967,319.584,75.334L319.65,78.701"/><path marker-end="url(#my-svg_flowchart-pointEnd)" style="fill:none;" class="edge-thickness-normal edge-pattern-solid flowchart-link LS-B LE-C" id="L-B-C-0" d="M273.329,171.762L243.043,185.125C212.758,198.487,152.188,225.212,121.902,247.075C91.617,268.938,91.617,285.938,91.617,301.396C91.617,316.854,91.617,330.771,91.617,356.094C91.617,381.417,91.617,418.146,91.617,436.511L91.617,454.876"/><path marker-end="url(#my-svg_flowchart-pointEnd)" style="fill:none;" class="edge-thickness-normal edge-pattern-solid flowchart-link LS-B LE-D" id="L-B-D-0" d="M356.731,181.211L371.223,192.998C385.714,204.786,414.698,228.362,429.19,244.975C443.682,261.588,443.682,271.238,443.682,276.063L443.682,280.888"/><path marker-end="url(#my-svg_flowchart-pointEnd)" style="fill:none;" class="edge-thickness-normal edge-pattern-solid flowchart-link LS-C LE-E" id="L-C-E-0" d="M91.617,493.676L91.617,514.465C91.617,535.255,91.617,576.835,91.617,602.449C91.617,628.064,91.617,637.714,91.617,642.539L91.617,647.364"/><path marker-end="url(#my-svg_flowchart-pointEnd)" style="fill:none;" class="edge-thickness-normal edge-pattern-solid flowchart-link LS-D LE-F" id="L-D-F-0" d="M443.682,319.688L443.682,323.854C443.682,328.021,443.682,336.354,443.748,343.888C443.814,351.421,443.946,358.155,444.012,361.522L444.078,364.889"/><path marker-end="url(#my-svg_flowchart-pointEnd)" style="fill:none;" class="edge-thickness-normal edge-pattern-solid flowchart-link LS-F LE-G" id="L-F-G-0" d="M395.023,535.506L383.174,549.324C371.325,563.142,347.626,590.778,335.777,609.421C323.928,628.064,323.928,637.714,323.928,642.539L323.928,647.364"/><path marker-end="url(#my-svg_flowchart-pointEnd)" style="fill:none;" class="edge-thickness-normal edge-pattern-solid flowchart-link LS-F LE-H" id="L-F-H-0" d="M493.34,535.506L505.022,549.324C516.705,563.142,540.07,590.778,551.753,609.421C563.436,628.064,563.436,637.714,563.436,642.539L563.436,647.364"/><path marker-end="url(#my-svg_flowchart-pointEnd)" style="fill:none;" class="edge-thickness-normal edge-pattern-solid flowchart-link LS-G LE-I" id="L-G-I-0" d="M323.928,686.164L323.928,690.331C323.928,694.497,323.928,702.831,312.347,710.883C300.767,718.935,277.606,726.707,266.025,730.592L254.445,734.478"/><path marker-end="url(#my-svg_flowchart-pointEnd)" style="fill:none;" class="edge-thickness-normal edge-pattern-solid flowchart-link LS-H LE-J" id="L-H-J-0" d="M563.436,686.164L563.436,690.331C563.436,694.497,563.436,702.831,563.436,710.281C563.436,717.731,563.436,724.297,563.436,727.581L563.436,730.864"/><path marker-end="url(#my-svg_flowchart-pointEnd)" style="fill:none;" class="edge-thickness-normal edge-pattern-solid flowchart-link LS-E LE-I" id="L-E-I-0" d="M91.617,686.164L91.617,690.331C91.617,694.497,91.617,702.831,101.56,710.845C111.503,718.86,131.389,726.556,141.332,730.403L151.275,734.251"/></g><g class="edgeLabels"><g class="edgeLabel"><g transform="translate(0, 0)" class="label"><foreignObject height="0" width="0"><div style="display: inline-block; white-space: nowrap;" xmlns="http://www.w3.org/1999/xhtml"><span class="edgeLabel"></span></div></foreignObject></g></g><g transform="translate(91.6171875, 302.9375)" class="edgeLabel"><g transform="translate(-20.03125, -9.25)" class="label"><foreignObject height="18.5" width="40.0625"><div style="display: inline-block; white-space: nowrap;" xmlns="http://www.w3.org/1999/xhtml"><span class="edgeLabel">React</span></div></foreignObject></g></g><g transform="translate(443.681640625, 251.9375)" class="edgeLabel"><g transform="translate(-24.12890625, -9.25)" class="label"><foreignObject height="18.5" width="48.2578125"><div style="display: inline-block; white-space: nowrap;" xmlns="http://www.w3.org/1999/xhtml"><span class="edgeLabel">jQuery</span></div></foreignObject></g></g><g class="edgeLabel"><g transform="translate(0, 0)" class="label"><foreignObject height="0" width="0"><div style="display: inline-block; white-space: nowrap;" xmlns="http://www.w3.org/1999/xhtml"><span class="edgeLabel"></span></div></foreignObject></g></g><g class="edgeLabel"><g transform="translate(0, 0)" class="label"><foreignObject height="0" width="0"><div style="display: inline-block; white-space: nowrap;" xmlns="http://www.w3.org/1999/xhtml"><span class="edgeLabel"></span></div></foreignObject></g></g><g transform="translate(323.927734375, 618.4140625)" class="edgeLabel"><g transform="translate(-11.32421875, -9.25)" class="label"><foreignObject height="18.5" width="22.6484375"><div style="display: inline-block; white-space: nowrap;" xmlns="http://www.w3.org/1999/xhtml"><span class="edgeLabel">Yes</span></div></foreignObject></g></g><g transform="translate(563.435546875, 618.4140625)" class="edgeLabel"><g transform="translate(-9.3984375, -9.25)" class="label"><foreignObject height="18.5" width="18.796875"><div style="display: inline-block; white-space: nowrap;" xmlns="http://www.w3.org/1999/xhtml"><span class="edgeLabel">No</span></div></foreignObject></g></g><g class="edgeLabel"><g transform="translate(0, 0)" class="label"><foreignObject height="0" width="0"><div style="display: inline-block; white-space: nowrap;" xmlns="http://www.w3.org/1999/xhtml"><span class="edgeLabel"></span></div></foreignObject></g></g><g class="edgeLabel"><g transform="translate(0, 0)" class="label"><foreignObject height="0" width="0"><div style="display: inline-block; white-space: nowrap;" xmlns="http://www.w3.org/1999/xhtml"><span class="edgeLabel"></span></div></foreignObject></g></g><g class="edgeLabel"><g transform="translate(0, 0)" class="label"><foreignObject height="0" width="0"><div style="display: inline-block; white-space: nowrap;" xmlns="http://www.w3.org/1999/xhtml"><span class="edgeLabel"></span></div></foreignObject></g></g></g><g class="nodes"><g transform="translate(319.25390625, 16.75)" data-id="A" data-node="true" id="flowchart-A-0" class="node default default flowchart-label"><rect height="33.5" width="88.8125" y="-16.75" x="-44.40625" ry="0" rx="0" style="" class="basic label-container"/><g transform="translate(-36.90625, -9.25)" style="" class="label"><rect/><foreignObject height="18.5" width="73.8125"><div style="display: inline-block; white-space: nowrap;" xmlns="http://www.w3.org/1999/xhtml"><span class="nodeLabel">User Input</span></div></foreignObject></g></g><g transform="translate(319.25390625, 150.59375)" data-id="B" data-node="true" id="flowchart-B-1" class="node default default flowchart-label"><polygon style="" transform="translate(-67.09375,67.09375)" class="label-container" points="67.09375,0 134.1875,-67.09375 67.09375,-134.1875 0,-67.09375"/><g transform="translate(-42.84375, -9.25)" style="" class="label"><rect/><foreignObject height="18.5" width="85.6875"><div style="display: inline-block; white-space: nowrap;" xmlns="http://www.w3.org/1999/xhtml"><span class="nodeLabel">Framework?</span></div></foreignObject></g></g><g transform="translate(91.6171875, 476.92578125)" data-id="C" data-node="true" id="flowchart-C-3" class="node default default flowchart-label"><rect height="33.5" width="183.234375" y="-16.75" x="-91.6171875" ry="0" rx="0" style="" class="basic label-container"/><g transform="translate(-84.1171875, -9.25)" style="" class="label"><rect/><foreignObject height="18.5" width="168.234375"><div style="display: inline-block; white-space: nowrap;" xmlns="http://www.w3.org/1999/xhtml"><span class="nodeLabel">JSX Automatic Escaping</span></div></foreignObject></g></g><g transform="translate(443.681640625, 302.9375)" data-id="D" data-node="true" id="flowchart-D-5" class="node default default flowchart-label"><rect height="33.5" width="223.0234375" y="-16.75" x="-111.51171875" ry="0" rx="0" style="" class="basic label-container"/><g transform="translate(-104.01171875, -9.25)" style="" class="label"><rect/><foreignObject height="18.5" width="208.0234375"><div style="display: inline-block; white-space: nowrap;" xmlns="http://www.w3.org/1999/xhtml"><span class="nodeLabel">Manual Sanitization Required</span></div></foreignObject></g></g><g transform="translate(91.6171875, 669.4140625)" data-id="E" data-node="true" id="flowchart-E-7" class="node default default flowchart-label"><rect height="33.5" width="156.8046875" y="-16.75" x="-78.40234375" ry="0" rx="0" style="" class="basic label-container"/><g transform="translate(-70.90234375, -9.25)" style="" class="label"><rect/><foreignObject height="18.5" width="141.8046875"><div style="display: inline-block; white-space: nowrap;" xmlns="http://www.w3.org/1999/xhtml"><span class="nodeLabel">Safe Text Rendering</span></div></foreignObject></g></g><g transform="translate(443.681640625, 476.92578125)" data-id="F" data-node="true" id="flowchart-F-9" class="node default default flowchart-label"><polygon style="" transform="translate(-107.23828125,107.23828125)" class="label-container" points="107.23828125,0 214.4765625,-107.23828125 107.23828125,-214.4765625 0,-107.23828125"/><g transform="translate(-82.98828125, -9.25)" style="" class="label"><rect/><foreignObject height="18.5" width="165.9765625"><div style="display: inline-block; white-space: nowrap;" xmlns="http://www.w3.org/1999/xhtml"><span class="nodeLabel">Developer Remembers?</span></div></foreignObject></g></g><g transform="translate(323.927734375, 669.4140625)" data-id="G" data-node="true" id="flowchart-G-11" class="node default default flowchart-label"><rect height="33.5" width="174.7265625" y="-16.75" x="-87.36328125" ry="0" rx="0" style="" class="basic label-container"/><g transform="translate(-79.86328125, -9.25)" style="" class="label"><rect/><foreignObject height="18.5" width="159.7265625"><div style="display: inline-block; white-space: nowrap;" xmlns="http://www.w3.org/1999/xhtml"><span class="nodeLabel">Manual .text() Method</span></div></foreignObject></g></g><g transform="translate(563.435546875, 669.4140625)" data-id="H" data-node="true" id="flowchart-H-13" class="node default default flowchart-label"><rect height="33.5" width="204.2890625" y="-16.75" x="-102.14453125" ry="0" rx="0" style="" class="basic label-container"/><g transform="translate(-94.64453125, -9.25)" style="" class="label"><rect/><foreignObject height="18.5" width="189.2890625"><div style="display: inline-block; white-space: nowrap;" xmlns="http://www.w3.org/1999/xhtml"><span class="nodeLabel">Vulnerable .html() Method</span></div></foreignObject></g></g><g transform="translate(199.5, 752.9140625)" data-id="I" data-node="true" id="flowchart-I-15" class="node default default flowchart-label"><rect height="33.5" width="100.4296875" y="-16.75" x="-50.21484375" ry="0" rx="0" style="" class="basic label-container"/><g transform="translate(-42.71484375, -9.25)" style="" class="label"><rect/><foreignObject height="18.5" width="85.4296875"><div style="display: inline-block; white-space: nowrap;" xmlns="http://www.w3.org/1999/xhtml"><span class="nodeLabel">Safe Output</span></div></foreignObject></g></g><g transform="translate(563.435546875, 752.9140625)" data-id="J" data-node="true" id="flowchart-J-17" class="node default default flowchart-label"><rect height="33.5" width="135.0234375" y="-16.75" x="-67.51171875" ry="0" rx="0" style="" class="basic label-container"/><g transform="translate(-60.01171875, -9.25)" style="" class="label"><rect/><foreignObject height="18.5" width="120.0234375"><div style="display: inline-block; white-space: nowrap;" xmlns="http://www.w3.org/1999/xhtml"><span class="nodeLabel">XSS Vulnerability</span></div></foreignObject></g></g></g></g></g></svg>