<svg aria-roledescription="xychart" role="graphics-document document" viewBox="0 0 700 500" style="max-width: 700px; background-color: transparent;" xmlns:xlink="http://www.w3.org/1999/xlink" xmlns="http://www.w3.org/2000/svg" width="100%" id="my-svg"><style>#my-svg{font-family:"trebuchet ms",verdana,arial,sans-serif;font-size:16px;fill:#ccc;}#my-svg .error-icon{fill:#a44141;}#my-svg .error-text{fill:#ddd;stroke:#ddd;}#my-svg .edge-thickness-normal{stroke-width:2px;}#my-svg .edge-thickness-thick{stroke-width:3.5px;}#my-svg .edge-pattern-solid{stroke-dasharray:0;}#my-svg .edge-pattern-dashed{stroke-dasharray:3;}#my-svg .edge-pattern-dotted{stroke-dasharray:2;}#my-svg .marker{fill:lightgrey;stroke:lightgrey;}#my-svg .marker.cross{stroke:lightgrey;}#my-svg svg{font-family:"trebuchet ms",verdana,arial,sans-serif;font-size:16px;}#my-svg :root{--mermaid-font-family:"trebuchet ms",verdana,arial,sans-serif;}</style><g/><g class="main"><rect fill="#333" class="background" height="500" width="700"/><g class="chart-title"><text transform="translate(350, 21) rotate(0)" text-anchor="middle" dominant-baseline="middle" font-size="20" fill="#e0dfdf" y="0" x="0">AI Automation ROI Progression</text></g><g class="plot"><g class="bar-plot-0"><rect stroke-width="0" stroke="#3498db" fill="#3498db" height="28.450000000000045" width="49.4" y="438.54999999999995" x="68.87226753234863"/><rect stroke-width="0" stroke="#3498db" fill="#3498db" height="48.89999999999998" width="49.4" y="418.1" x="151.7905150277274"/><rect stroke-width="0" stroke="#3498db" fill="#3498db" height="76.16666666666669" width="49.4" y="390.8333333333333" x="234.70876252310615"/><rect stroke-width="0" stroke="#3498db" fill="#3498db" height="117.06666666666666" width="49.4" y="349.93333333333334" x="317.62701001848495"/><rect stroke-width="0" stroke="#3498db" fill="#3498db" height="171.60000000000002" width="49.4" y="295.4" x="400.5452575138637"/><rect stroke-width="0" stroke="#3498db" fill="#3498db" height="226.13333333333333" width="49.4" y="240.86666666666667" x="483.46350500924245"/><rect stroke-width="0" stroke="#3498db" fill="#3498db" height="294.29999999999995" width="49.4" y="172.70000000000002" x="566.3817525046212"/><rect stroke-width="0" stroke="#3498db" fill="#3498db" height="389.73333333333335" width="49.4" y="77.26666666666665" x="649.3"/></g></g><g class="bottom-axis"><g class="axis-line"><path stroke-width="2" stroke="#e0dfdf" fill="none" d="M 67.57226753234863,468 L 700,468"/></g><g class="label"><text transform="translate(93.57226753234863, 479) rotate(0)" text-anchor="middle" dominant-baseline="text-before-edge" font-size="14" fill="#e0dfdf" y="0" x="0">Q1</text><text transform="translate(176.49051502772738, 479) rotate(0)" text-anchor="middle" dominant-baseline="text-before-edge" font-size="14" fill="#e0dfdf" y="0" x="0">Q2</text><text transform="translate(259.40876252310613, 479) rotate(0)" text-anchor="middle" dominant-baseline="text-before-edge" font-size="14" fill="#e0dfdf" y="0" x="0">Q3</text><text transform="translate(342.32701001848494, 479) rotate(0)" text-anchor="middle" dominant-baseline="text-before-edge" font-size="14" fill="#e0dfdf" y="0" x="0">Q4</text><text transform="translate(425.2452575138637, 479) rotate(0)" text-anchor="middle" dominant-baseline="text-before-edge" font-size="14" fill="#e0dfdf" y="0" x="0">Q5</text><text transform="translate(508.16350500924244, 479) rotate(0)" text-anchor="middle" dominant-baseline="text-before-edge" font-size="14" fill="#e0dfdf" y="0" x="0">Q6</text><text transform="translate(591.0817525046212, 479) rotate(0)" text-anchor="middle" dominant-baseline="text-before-edge" font-size="14" fill="#e0dfdf" y="0" x="0">Q7</text><text transform="translate(674, 479) rotate(0)" text-anchor="middle" dominant-baseline="text-before-edge" font-size="14" fill="#e0dfdf" y="0" x="0">Q8</text></g><g class="ticks"><path stroke-width="2" stroke="#e0dfdf" fill="none" d="M 93.57226753234863,469 L 93.57226753234863,474"/><path stroke-width="2" stroke="#e0dfdf" fill="none" d="M 176.49051502772738,469 L 176.49051502772738,474"/><path stroke-width="2" stroke="#e0dfdf" fill="none" d="M 259.40876252310613,469 L 259.40876252310613,474"/><path stroke-width="2" stroke="#e0dfdf" fill="none" d="M 342.32701001848494,469 L 342.32701001848494,474"/><path stroke-width="2" stroke="#e0dfdf" fill="none" d="M 425.2452575138637,469 L 425.2452575138637,474"/><path stroke-width="2" stroke="#e0dfdf" fill="none" d="M 508.16350500924244,469 L 508.16350500924244,474"/><path stroke-width="2" stroke="#e0dfdf" fill="none" d="M 591.0817525046212,469 L 591.0817525046212,474"/><path stroke-width="2" stroke="#e0dfdf" fill="none" d="M 674,469 L 674,474"/></g></g><g class="left-axis"><g class="axisl-line"><path stroke-width="2" stroke="#e0dfdf" fill="none" d="M 66.57226753234863,42 L 66.57226753234863,467"/></g><g class="label"><text transform="translate(55.57226753234863, 50) rotate(0)" text-anchor="end" dominant-baseline="middle" font-size="14" fill="#e0dfdf" y="0" x="0">300</text><text transform="translate(55.57226753234863, 77.26666666666665) rotate(0)" text-anchor="end" dominant-baseline="middle" font-size="14" fill="#e0dfdf" y="0" x="0">280</text><text transform="translate(55.57226753234863, 104.53333333333333) rotate(0)" text-anchor="end" dominant-baseline="middle" font-size="14" fill="#e0dfdf" y="0" x="0">260</text><text transform="translate(55.57226753234863, 131.79999999999998) rotate(0)" text-anchor="end" dominant-baseline="middle" font-size="14" fill="#e0dfdf" y="0" x="0">240</text><text transform="translate(55.57226753234863, 159.0666666666667) rotate(0)" text-anchor="end" dominant-baseline="middle" font-size="14" fill="#e0dfdf" y="0" x="0">220</text><text transform="translate(55.57226753234863, 186.33333333333337) rotate(0)" text-anchor="end" dominant-baseline="middle" font-size="14" fill="#e0dfdf" y="0" x="0">200</text><text transform="translate(55.57226753234863, 213.60000000000002) rotate(0)" text-anchor="end" dominant-baseline="middle" font-size="14" fill="#e0dfdf" y="0" x="0">180</text><text transform="translate(55.57226753234863, 240.86666666666667) rotate(0)" text-anchor="end" dominant-baseline="middle" font-size="14" fill="#e0dfdf" y="0" x="0">160</text><text transform="translate(55.57226753234863, 268.1333333333333) rotate(0)" text-anchor="end" dominant-baseline="middle" font-size="14" fill="#e0dfdf" y="0" x="0">140</text><text transform="translate(55.57226753234863, 295.4) rotate(0)" text-anchor="end" dominant-baseline="middle" font-size="14" fill="#e0dfdf" y="0" x="0">120</text><text transform="translate(55.57226753234863, 322.66666666666674) rotate(0)" text-anchor="end" dominant-baseline="middle" font-size="14" fill="#e0dfdf" y="0" x="0">100</text><text transform="translate(55.57226753234863, 349.93333333333334) rotate(0)" text-anchor="end" dominant-baseline="middle" font-size="14" fill="#e0dfdf" y="0" x="0">80</text><text transform="translate(55.57226753234863, 377.20000000000005) rotate(0)" text-anchor="end" dominant-baseline="middle" font-size="14" fill="#e0dfdf" y="0" x="0">60</text><text transform="translate(55.57226753234863, 404.4666666666667) rotate(0)" text-anchor="end" dominant-baseline="middle" font-size="14" fill="#e0dfdf" y="0" x="0">40</text><text transform="translate(55.57226753234863, 431.73333333333335) rotate(0)" text-anchor="end" dominant-baseline="middle" font-size="14" fill="#e0dfdf" y="0" x="0">20</text><text transform="translate(55.57226753234863, 459) rotate(0)" text-anchor="end" dominant-baseline="middle" font-size="14" fill="#e0dfdf" y="0" x="0">0</text></g><g class="ticks"><path stroke-width="2" stroke="#e0dfdf" fill="none" d="M 65.57226753234863,50 L 60.57226753234863,50"/><path stroke-width="2" stroke="#e0dfdf" fill="none" d="M 65.57226753234863,77.26666666666665 L 60.57226753234863,77.26666666666665"/><path stroke-width="2" stroke="#e0dfdf" fill="none" d="M 65.57226753234863,104.53333333333333 L 60.57226753234863,104.53333333333333"/><path stroke-width="2" stroke="#e0dfdf" fill="none" d="M 65.57226753234863,131.79999999999998 L 60.57226753234863,131.79999999999998"/><path stroke-width="2" stroke="#e0dfdf" fill="none" d="M 65.57226753234863,159.0666666666667 L 60.57226753234863,159.0666666666667"/><path stroke-width="2" stroke="#e0dfdf" fill="none" d="M 65.57226753234863,186.33333333333337 L 60.57226753234863,186.33333333333337"/><path stroke-width="2" stroke="#e0dfdf" fill="none" d="M 65.57226753234863,213.60000000000002 L 60.57226753234863,213.60000000000002"/><path stroke-width="2" stroke="#e0dfdf" fill="none" d="M 65.57226753234863,240.86666666666667 L 60.57226753234863,240.86666666666667"/><path stroke-width="2" stroke="#e0dfdf" fill="none" d="M 65.57226753234863,268.1333333333333 L 60.57226753234863,268.1333333333333"/><path stroke-width="2" stroke="#e0dfdf" fill="none" d="M 65.57226753234863,295.4 L 60.57226753234863,295.4"/><path stroke-width="2" stroke="#e0dfdf" fill="none" d="M 65.57226753234863,322.66666666666674 L 60.57226753234863,322.66666666666674"/><path stroke-width="2" stroke="#e0dfdf" fill="none" d="M 65.57226753234863,349.93333333333334 L 60.57226753234863,349.93333333333334"/><path stroke-width="2" stroke="#e0dfdf" fill="none" d="M 65.57226753234863,377.20000000000005 L 60.57226753234863,377.20000000000005"/><path stroke-width="2" stroke="#e0dfdf" fill="none" d="M 65.57226753234863,404.4666666666667 L 60.57226753234863,404.4666666666667"/><path stroke-width="2" stroke="#e0dfdf" fill="none" d="M 65.57226753234863,431.73333333333335 L 60.57226753234863,431.73333333333335"/><path stroke-width="2" stroke="#e0dfdf" fill="none" d="M 65.57226753234863,459 L 60.57226753234863,459"/></g><g class="title"><text transform="translate(5, 254.5) rotate(270)" text-anchor="middle" dominant-baseline="text-before-edge" font-size="16" fill="#e0dfdf" y="0" x="0">ROI Percentage</text></g></g></g><g class="mermaid-tmp-group"/></svg>