<svg aria-roledescription="mindmap" role="graphics-document document" viewBox="5 5 1265.5867919921875 585.7587890625" style="max-width: 1265.59px; background-color: transparent;" xmlns:xlink="http://www.w3.org/1999/xlink" xmlns="http://www.w3.org/2000/svg" width="100%" id="my-svg"><style>#my-svg{font-family:"trebuchet ms",verdana,arial,sans-serif;font-size:16px;fill:#333;}#my-svg .error-icon{fill:hsl(180, 0%, 100%);}#my-svg .error-text{fill:rgb(0, 0, 0);stroke:rgb(0, 0, 0);}#my-svg .edge-thickness-normal{stroke-width:2px;}#my-svg .edge-thickness-thick{stroke-width:3.5px;}#my-svg .edge-pattern-solid{stroke-dasharray:0;}#my-svg .edge-pattern-dashed{stroke-dasharray:3;}#my-svg .edge-pattern-dotted{stroke-dasharray:2;}#my-svg .marker{fill:#0b0b0b;stroke:#0b0b0b;}#my-svg .marker.cross{stroke:#0b0b0b;}#my-svg svg{font-family:"trebuchet ms",verdana,arial,sans-serif;font-size:16px;}#my-svg .edge{stroke-width:3;}#my-svg .section--1 rect,#my-svg .section--1 path,#my-svg .section--1 circle,#my-svg .section--1 polygon,#my-svg .section--1 path{fill:hsl(0, 0%, 75%);}#my-svg .section--1 text{fill:#333;}#my-svg .node-icon--1{font-size:40px;color:#333;}#my-svg .section-edge--1{stroke:hsl(0, 0%, 75%);}#my-svg .edge-depth--1{stroke-width:17;}#my-svg .section--1 line{stroke:rgb(63.75, 63.75, 63.75);stroke-width:3;}#my-svg .disabled,#my-svg .disabled circle,#my-svg .disabled text{fill:lightgray;}#my-svg .disabled text{fill:#efefef;}#my-svg .section-0 rect,#my-svg .section-0 path,#my-svg .section-0 circle,#my-svg .section-0 polygon,#my-svg .section-0 path{fill:hsl(-120, 0%, 75%);}#my-svg .section-0 text{fill:#333;}#my-svg .node-icon-0{font-size:40px;color:#333;}#my-svg .section-edge-0{stroke:hsl(-120, 0%, 75%);}#my-svg .edge-depth-0{stroke-width:14;}#my-svg .section-0 line{stroke:rgb(63.75, 63.75, 63.75);stroke-width:3;}#my-svg .disabled,#my-svg .disabled circle,#my-svg .disabled text{fill:lightgray;}#my-svg .disabled text{fill:#efefef;}#my-svg .section-1 rect,#my-svg .section-1 path,#my-svg .section-1 circle,#my-svg .section-1 polygon,#my-svg .section-1 path{fill:hsl(180, 0%, 75%);}#my-svg .section-1 text{fill:#333;}#my-svg .node-icon-1{font-size:40px;color:#333;}#my-svg .section-edge-1{stroke:hsl(180, 0%, 75%);}#my-svg .edge-depth-1{stroke-width:11;}#my-svg .section-1 line{stroke:rgb(63.75, 63.75, 63.75);stroke-width:3;}#my-svg .disabled,#my-svg .disabled circle,#my-svg .disabled text{fill:lightgray;}#my-svg .disabled text{fill:#efefef;}#my-svg .section-2 rect,#my-svg .section-2 path,#my-svg .section-2 circle,#my-svg .section-2 polygon,#my-svg .section-2 path{fill:hsl(30, 0%, 75%);}#my-svg .section-2 text{fill:#333;}#my-svg .node-icon-2{font-size:40px;color:#333;}#my-svg .section-edge-2{stroke:hsl(30, 0%, 75%);}#my-svg .edge-depth-2{stroke-width:8;}#my-svg .section-2 line{stroke:rgb(63.75, 63.75, 63.75);stroke-width:3;}#my-svg .disabled,#my-svg .disabled circle,#my-svg .disabled text{fill:lightgray;}#my-svg .disabled text{fill:#efefef;}#my-svg .section-3 rect,#my-svg .section-3 path,#my-svg .section-3 circle,#my-svg .section-3 polygon,#my-svg .section-3 path{fill:hsl(60, 0%, 75%);}#my-svg .section-3 text{fill:#333;}#my-svg .node-icon-3{font-size:40px;color:#333;}#my-svg .section-edge-3{stroke:hsl(60, 0%, 75%);}#my-svg .edge-depth-3{stroke-width:5;}#my-svg .section-3 line{stroke:rgb(63.75, 63.75, 63.75);stroke-width:3;}#my-svg .disabled,#my-svg .disabled circle,#my-svg .disabled text{fill:lightgray;}#my-svg .disabled text{fill:#efefef;}#my-svg .section-4 rect,#my-svg .section-4 path,#my-svg .section-4 circle,#my-svg .section-4 polygon,#my-svg .section-4 path{fill:hsl(90, 0%, 75%);}#my-svg .section-4 text{fill:#333;}#my-svg .node-icon-4{font-size:40px;color:#333;}#my-svg .section-edge-4{stroke:hsl(90, 0%, 75%);}#my-svg .edge-depth-4{stroke-width:2;}#my-svg .section-4 line{stroke:rgb(63.75, 63.75, 63.75);stroke-width:3;}#my-svg .disabled,#my-svg .disabled circle,#my-svg .disabled text{fill:lightgray;}#my-svg .disabled text{fill:#efefef;}#my-svg .section-5 rect,#my-svg .section-5 path,#my-svg .section-5 circle,#my-svg .section-5 polygon,#my-svg .section-5 path{fill:hsl(120, 0%, 75%);}#my-svg .section-5 text{fill:#333;}#my-svg .node-icon-5{font-size:40px;color:#333;}#my-svg .section-edge-5{stroke:hsl(120, 0%, 75%);}#my-svg .edge-depth-5{stroke-width:-1;}#my-svg .section-5 line{stroke:rgb(63.75, 63.75, 63.75);stroke-width:3;}#my-svg .disabled,#my-svg .disabled circle,#my-svg .disabled text{fill:lightgray;}#my-svg .disabled text{fill:#efefef;}#my-svg .section-6 rect,#my-svg .section-6 path,#my-svg .section-6 circle,#my-svg .section-6 polygon,#my-svg .section-6 path{fill:hsl(150, 0%, 75%);}#my-svg .section-6 text{fill:#333;}#my-svg .node-icon-6{font-size:40px;color:#333;}#my-svg .section-edge-6{stroke:hsl(150, 0%, 75%);}#my-svg .edge-depth-6{stroke-width:-4;}#my-svg .section-6 line{stroke:rgb(63.75, 63.75, 63.75);stroke-width:3;}#my-svg .disabled,#my-svg .disabled circle,#my-svg .disabled text{fill:lightgray;}#my-svg .disabled text{fill:#efefef;}#my-svg .section-7 rect,#my-svg .section-7 path,#my-svg .section-7 circle,#my-svg .section-7 polygon,#my-svg .section-7 path{fill:hsl(210, 0%, 75%);}#my-svg .section-7 text{fill:#333;}#my-svg .node-icon-7{font-size:40px;color:#333;}#my-svg .section-edge-7{stroke:hsl(210, 0%, 75%);}#my-svg .edge-depth-7{stroke-width:-7;}#my-svg .section-7 line{stroke:rgb(63.75, 63.75, 63.75);stroke-width:3;}#my-svg .disabled,#my-svg .disabled circle,#my-svg .disabled text{fill:lightgray;}#my-svg .disabled text{fill:#efefef;}#my-svg .section-8 rect,#my-svg .section-8 path,#my-svg .section-8 circle,#my-svg .section-8 polygon,#my-svg .section-8 path{fill:hsl(270, 0%, 75%);}#my-svg .section-8 text{fill:#333;}#my-svg .node-icon-8{font-size:40px;color:#333;}#my-svg .section-edge-8{stroke:hsl(270, 0%, 75%);}#my-svg .edge-depth-8{stroke-width:-10;}#my-svg .section-8 line{stroke:rgb(63.75, 63.75, 63.75);stroke-width:3;}#my-svg .disabled,#my-svg .disabled circle,#my-svg .disabled text{fill:lightgray;}#my-svg .disabled text{fill:#efefef;}#my-svg .section-9 rect,#my-svg .section-9 path,#my-svg .section-9 circle,#my-svg .section-9 polygon,#my-svg .section-9 path{fill:hsl(300, 0%, 75%);}#my-svg .section-9 text{fill:#333;}#my-svg .node-icon-9{font-size:40px;color:#333;}#my-svg .section-edge-9{stroke:hsl(300, 0%, 75%);}#my-svg .edge-depth-9{stroke-width:-13;}#my-svg .section-9 line{stroke:rgb(63.75, 63.75, 63.75);stroke-width:3;}#my-svg .disabled,#my-svg .disabled circle,#my-svg .disabled text{fill:lightgray;}#my-svg .disabled text{fill:#efefef;}#my-svg .section-10 rect,#my-svg .section-10 path,#my-svg .section-10 circle,#my-svg .section-10 polygon,#my-svg .section-10 path{fill:hsl(330, 0%, 75%);}#my-svg .section-10 text{fill:#333;}#my-svg .node-icon-10{font-size:40px;color:#333;}#my-svg .section-edge-10{stroke:hsl(330, 0%, 75%);}#my-svg .edge-depth-10{stroke-width:-16;}#my-svg .section-10 line{stroke:rgb(63.75, 63.75, 63.75);stroke-width:3;}#my-svg .disabled,#my-svg .disabled circle,#my-svg .disabled text{fill:lightgray;}#my-svg .disabled text{fill:#efefef;}#my-svg .section-root rect,#my-svg .section-root path,#my-svg .section-root circle,#my-svg .section-root polygon{fill:hsl(0, 0%, 75%);}#my-svg .section-root text{fill:#333;}#my-svg .icon-container{height:100%;display:flex;justify-content:center;align-items:center;}#my-svg .edge{fill:none;}#my-svg .mindmap-node-label{dy:1em;alignment-baseline:middle;text-anchor:middle;dominant-baseline:middle;text-align:center;}#my-svg :root{--mermaid-font-family:"trebuchet ms",verdana,arial,sans-serif;}</style><g/><g class="mindmap-edges"><path class="edge section-edge-0 edge-depth-2" d="M 359.2626955195485,256.80897919588955 L 367.89347265797676,285.7218336483029 L376.5242497964051,314.6346881007163"/><path class="edge section-edge-0 edge-depth-2" d="M 340.79163192149565,247.32584839948368 L 281.2997978552688,267.8416072259284 L221.80796378904196,288.3573660523731"/><path class="edge section-edge-0 edge-depth-1" d="M 482.4547038056316,218.36925780581834 L 426.0832403236892,229.01118905394364 L369.7117768417468,239.65312030206894"/><path class="edge section-edge-0 edge-depth-2" d="M 334.03463029618104,177.63025515290252 L 286.14728671067536,193.91957734047705 L238.25994312516966,210.20889952805157"/><path class="edge section-edge-0 edge-depth-2" d="M 333.4602337806872,170.21307593833015 L 267.8307701816304,158.72377078200378 L202.20130658257355,147.23446562567742"/><path class="edge section-edge-0 edge-depth-1" d="M 482.77731882661755,211.44552003611744 L 422.71494204968235,194.19318060981433 L362.65256527274715,176.94084118351122"/><path class="edge section-edge-0 edge-depth-2" d="M 431.5266164658863,118.84006737492004 L 344.3264132105465,98.81515856972226 L257.12620995520666,78.79024976452448"/><path class="edge section-edge-0 edge-depth-2" d="M 439.9185658907173,108.55115207111885 L 425.77216433919824,77.55256847870848 L411.6257627876792,46.553984886298096"/><path class="edge section-edge-0 edge-depth-1" d="M 489.99977423718883,202.42468129604163 L 471.6702178685251,168.89199922221223 L453.3406614998614,135.3593171483828"/><path class="edge section-edge-0 edge-depth-0" d="M 605.8596639902219,287.8516453571992 L 557.7721177179359,255.87230356684148 L509.68457144564996,223.8929617764838"/><path class="edge section-edge-1 edge-depth-2" d="M 865.0352317501914,137.02186974429395 L 905.827354202242,106.31236106321748 L946.6194766542925,75.602852382141"/><path class="edge section-edge-1 edge-depth-2" d="M 867.982691780513,144.60817924062928 L 969.3610990708721,134.8623804162492 L1070.739506361231,125.11658159186914"/><path class="edge section-edge-1 edge-depth-1" d="M 740.0207886527298,208.18042729519613 L 789.9638009853035,180.72504103825082 L839.9068133178771,153.26965478130552"/><path class="edge section-edge-1 edge-depth-2" d="M 680.8151413550161,123.95196097958569 L 719.3381434669294,99.29735159869057 L757.8611455788428,74.64274221779544"/><path class="edge section-edge-1 edge-depth-2" d="M 657.1990144354418,121.82036232511305 L 628.2701341822013,94.90575204923242 L599.3412539289609,67.9911417733518"/><path class="edge section-edge-1 edge-depth-1" d="M 718.2409098847858,203.14137637516072 L 697.5285645563976,173.72213360514448 L676.8162192280093,144.30289083512824"/><path class="edge section-edge-1 edge-depth-2" d="M 885.0458775271067,224.57506129965728 L 867.4000361607223,249.2570136779982 L849.7541947943379,273.93896605633915"/><path class="edge section-edge-1 edge-depth-2" d="M 908.7547843518547,211.7052045011267 L 992.8643455718416,207.95823539610652 L1076.9739067918285,204.21126629108633"/><path class="edge section-edge-1 edge-depth-1" d="M 741.873597817375,215.13390519553226 L 810.3228610273557,213.88964964811763 L878.7721242373366,212.645394100703"/><path class="edge section-edge-1 edge-depth-0" d="M 630.3840334936103,287.2036473741444 L 672.6129794654258,255.78222999126206 L714.8419254372413,224.36081260837972"/><path class="edge section-edge-2 edge-depth-2" d="M 777.6921137109441,472.0272186089305 L 752.7865863813665,499.84818626711444 L727.881059051789,527.6691539252985"/><path class="edge section-edge-2 edge-depth-2" d="M 800.4563706532186,468.7377381603751 L 840.7477305108711,493.6416146749757 L881.0390903685235,518.5454911895763"/><path class="edge section-edge-2 edge-depth-1" d="M 784.1933761308732,377.45577394715775 L 785.6303559956145,411.66010230648135 L787.0673358603559,445.86443066580495"/><path class="edge section-edge-2 edge-depth-2" d="M 958.1826767764873,415.6530071919145 L 1043.4376734217835,421.3257488752456 L1128.69267006708,426.9984905585767"/><path class="edge section-edge-2 edge-depth-2" d="M 955.7764256579244,422.85652079259245 L 993.8162821190056,447.6883176186832 L1031.8561385800865,472.5201144447739"/><path class="edge section-edge-2 edge-depth-1" d="M 797.8213395469542,367.1296094489302 L 863.3897645914898,388.56306261533547 L928.9581896360254,409.99651578174075"/><path class="edge section-edge-2 edge-depth-2" d="M 969.210952486099,338.7590030837163 L 1062.3866952170645,341.5949108197726 L1155.56243794803,344.4308185558289"/><path class="edge section-edge-2 edge-depth-2" d="M 968.2390192059438,332.9727490538906 L 1025.5316057437583,311.19381663458245 L1082.8241922815728,289.4148842152743"/><path class="edge section-edge-2 edge-depth-1" d="M 798.4155815229731,360.36582789778805 L 868.8908261439068,350.3858332184806 L939.3660707648405,340.4058385391732"/><path class="edge section-edge-2 edge-depth-0" d="M 632.2704721088178,301.745169718726 L 700.9568202182298,329.3134634649456 L769.6431683276419,356.88175721116517"/><path class="edge section-edge-3 edge-depth-2" d="M 573.8352458172232,463.8140026680869 L 615.3432941946493,441.3680370514379 L656.8513425720754,418.9220714347888"/><path class="edge section-edge-3 edge-depth-2" d="M 559.9548191039885,485.93331996581577 L 558.5370226381395,516.8999902182406 L557.1192261722906,547.8666604706655"/><path class="edge section-edge-3 edge-depth-1" d="M 521.3335993195114,395.7156070768808 L 537.5141661314153,426.68492178493545 L553.6947329433192,457.65423649299"/><path class="edge section-edge-3 edge-depth-2" d="M 405.38494120242103,467.8334564553528 L 390.5744848159529,496.9399582702922 L375.7640284294848,526.0464600852316"/><path class="edge section-edge-3 edge-depth-2" d="M 397.47885951376986,457.40678762231704 L 313.16220005943075,474.2725615411886 L228.84554060509163,491.1383354600602"/><path class="edge section-edge-3 edge-depth-1" d="M 502.12744549403703,391.0632783477587 L 463.2874753161485,418.4427312703042 L424.44750513826,445.8221841928497"/><path class="edge section-edge-3 edge-depth-2" d="M 301.95207350757,397.1665026231362 L 227.6632718034026,379.999432471761 L153.37447009923523,362.8323623203858"/><path class="edge section-edge-3 edge-depth-2" d="M 301.81170273352683,403.2425495905258 L 210.36158891069698,419.9689882816543 L118.91147508786713,436.69542697278274"/><path class="edge section-edge-3 edge-depth-1" d="M 499.450016666803,383.78929273532395 L 415.47719536665187,391.4823055674642 L331.50437406650076,399.17531839960446"/><path class="edge section-edge-3 edge-depth-0" d="M 606.8062509493948,305.73627056828275 L 566.3686732010701,339.2893798530565 L525.9310954527455,372.8424891378303"/></g><g class="mindmap-nodes"><g transform="translate(519.1311334902305, 278.25012064667555)" class="mindmap-node section--1 section-root"><g><path d="M0 0 a29.765625,29.765625 0 0,1 49.609375,-19.84375&#10;      a69.453125,69.453125 1 0,1 79.375,-19.84375&#10;      a49.609375,49.609375 1 0,1 69.453125,39.6875&#10;&#10;      a29.765625,29.765625 1 0,1 29.765625,12.535468749999998&#10;      a39.6875,39.6875 1 0,1 -29.765625,23.280156249999997&#10;&#10;      a49.609375,29.765625 1 0,1 -49.609375,29.765625&#10;      a69.453125,69.453125 1 0,1 -99.21875,0&#10;      a29.765625,29.765625 1 0,1 -49.609375,-29.765625&#10;&#10;      a29.765625,29.765625 1 0,1 -19.84375,-12.535468749999998&#10;      a39.6875,39.6875 1 0,1 19.84375,-23.280156249999997&#10;&#10;    H0 V0 Z" class="node-bkg node-cloud" id="node-0"/></g><g transform="translate(99.21875, 5)" text-anchor="middle" dominant-baseline="middle" alignment-baseline="middle" dy="1em"><g><rect class="background"/><text y="-10.1"><tspan dy="1.1em" y="-0.1em" x="0" class="text-outer-tspan"><tspan font-weight="normal" class="text-inner-tspan" font-style="normal">BFT</tspan><tspan font-weight="normal" class="text-inner-tspan" font-style="normal"> Research</tspan><tspan font-weight="normal" class="text-inner-tspan" font-style="normal"> Directions</tspan></tspan></text></g></g></g><g transform="translate(451.1787269456413, 197.67886148700745)" class="mindmap-node section-0"><g><path d="M0 30.815624999999997 v-25.815624999999997 q0,-5 5,-5 h82.03125 q5,0 5,5 v30.815624999999997 H0 Z" class="node-bkg node-no-border" id="node-1"/><line y2="35.815625" x2="92.03125" y1="35.815625" x1="0" class="node-line-0"/></g><g transform="translate(46.015625, 5)" text-anchor="middle" dominant-baseline="middle" alignment-baseline="middle" dy="1em"><g><rect class="background"/><text y="-10.1"><tspan dy="1.1em" y="-0.1em" x="0" class="text-outer-tspan"><tspan font-weight="normal" class="text-inner-tspan" font-style="normal">Scalability</tspan></tspan></text></g></g></g><g transform="translate(312.9486912017371, 224.5278916208798)" class="mindmap-node section-0"><g><path d="M0 30.815624999999997 v-25.815624999999997 q0,-5 5,-5 h74.046875 q5,0 5,5 v30.815624999999997 H0 Z" class="node-bkg node-no-border" id="node-2"/><line y2="35.815625" x2="84.046875" y1="35.815625" x1="0" class="node-line-0"/></g><g transform="translate(42.0234375, 5)" text-anchor="middle" dominant-baseline="middle" alignment-baseline="middle" dy="1em"><g><rect class="background"/><text y="-10.1"><tspan dy="1.1em" y="-0.1em" x="0" class="text-outer-tspan"><tspan font-weight="normal" class="text-inner-tspan" font-style="normal">Sharding</tspan></tspan></text></g></g></g><g transform="translate(315.2366916142165, 302.30015143866547)" class="mindmap-node section-0"><g><path d="M0 48.41562347412109 v-43.41562347412109 q0,-5 5,-5 h121.15625 q5,0 5,5 v48.41562347412109 H0 Z" class="node-bkg node-no-border" id="node-3"/><line y2="53.41562347412109" x2="131.15625" y1="53.41562347412109" x1="0" class="node-line-0"/></g><g transform="translate(65.578125, 5)" text-anchor="middle" dominant-baseline="middle" alignment-baseline="middle" dy="1em"><g><rect class="background"/><text y="-10.1"><tspan dy="1.1em" y="-0.1em" x="0" class="text-outer-tspan"><tspan font-weight="normal" class="text-inner-tspan" font-style="normal">Cross-Shard</tspan></tspan><tspan dy="1.1em" y="1em" x="0" class="text-outer-tspan"><tspan font-weight="normal" class="text-inner-tspan" font-style="normal">Communication</tspan></tspan></text></g></g></g><g transform="translate(136.69777950880052, 275.339697830977)" class="mindmap-node section-0"><g><path d="M0 30.815624999999997 v-25.815624999999997 q0,-5 5,-5 h131.859375 q5,0 5,5 v30.815624999999997 H0 Z" class="node-bkg node-no-border" id="node-4"/><line y2="35.815625" x2="141.859375" y1="35.815625" x1="0" class="node-line-0"/></g><g transform="translate(70.9296875, 5)" text-anchor="middle" dominant-baseline="middle" alignment-baseline="middle" dy="1em"><g><rect class="background"/><text y="-10.1"><tspan dy="1.1em" y="-0.1em" x="0" class="text-outer-tspan"><tspan font-weight="normal" class="text-inner-tspan" font-style="normal">State</tspan><tspan font-weight="normal" class="text-inner-tspan" font-style="normal"> Partitioning</tspan></tspan></text></g></g></g><g transform="translate(311.4972509037234, 154.8918747326212)" class="mindmap-node section-0"><g><path d="M0 30.815624999999997 v-25.815624999999997 q0,-5 5,-5 h63.4765625 q5,0 5,5 v30.815624999999997 H0 Z" class="node-bkg node-no-border" id="node-5"/><line y2="35.815625" x2="73.4765625" y1="35.815625" x1="0" class="node-line-0"/></g><g transform="translate(36.73828125, 5)" text-anchor="middle" dominant-baseline="middle" alignment-baseline="middle" dy="1em"><g><rect class="background"/><text y="-10.1"><tspan dy="1.1em" y="-0.1em" x="0" class="text-outer-tspan"><tspan font-weight="normal" class="text-inner-tspan" font-style="normal">Layer</tspan><tspan font-weight="normal" class="text-inner-tspan" font-style="normal"> 2</tspan></tspan></text></g></g></g><g transform="translate(187.37935376762732, 197.13165494833288)" class="mindmap-node section-0"><g><path d="M0 30.815624999999997 v-25.815624999999997 q0,-5 5,-5 h63.359375 q5,0 5,5 v30.815624999999997 H0 Z" class="node-bkg node-no-border" id="node-6"/><line y2="35.815625" x2="73.359375" y1="35.815625" x1="0" class="node-line-0"/></g><g transform="translate(36.6796875, 5)" text-anchor="middle" dominant-baseline="middle" alignment-baseline="middle" dy="1em"><g><rect class="background"/><text y="-10.1"><tspan dy="1.1em" y="-0.1em" x="0" class="text-outer-tspan"><tspan font-weight="normal" class="text-inner-tspan" font-style="normal">Rollups</tspan></tspan></text></g></g></g><g transform="translate(122.72288320953737, 126.74004183138635)" class="mindmap-node section-0"><g><path d="M0 30.815624999999997 v-25.815624999999997 q0,-5 5,-5 h119.40625 q5,0 5,5 v30.815624999999997 H0 Z" class="node-bkg node-no-border" id="node-7"/><line y2="35.815625" x2="129.40625" y1="35.815625" x1="0" class="node-line-0"/></g><g transform="translate(64.703125, 5)" text-anchor="middle" dominant-baseline="middle" alignment-baseline="middle" dy="1em"><g><rect class="background"/><text y="-10.1"><tspan dy="1.1em" y="-0.1em" x="0" class="text-outer-tspan"><tspan font-weight="normal" class="text-inner-tspan" font-style="normal">State</tspan><tspan font-weight="normal" class="text-inner-tspan" font-style="normal"> Channels</tspan></tspan></text></g></g></g><g transform="translate(367.21639629140896, 104.28951195741695)" class="mindmap-node section-0"><g><path d="M0 30.815624999999997 v-25.815624999999997 q0,-5 5,-5 h147.859375 q5,0 5,5 v30.815624999999997 H0 Z" class="node-bkg node-no-border" id="node-8"/><line y2="35.815625" x2="157.859375" y1="35.815625" x1="0" class="node-line-0"/></g><g transform="translate(78.9296875, 5)" text-anchor="middle" dominant-baseline="middle" alignment-baseline="middle" dy="1em"><g><rect class="background"/><text y="-10.1"><tspan dy="1.1em" y="-0.1em" x="0" class="text-outer-tspan"><tspan font-weight="normal" class="text-inner-tspan" font-style="normal">Parallel</tspan><tspan font-weight="normal" class="text-inner-tspan" font-style="normal"> Consensus</tspan></tspan></text></g></g></g><g transform="translate(176.92861762968403, 57.52518018202756)" class="mindmap-node section-0"><g><path d="M0 30.815624999999997 v-25.815624999999997 q0,-5 5,-5 h121.15625 q5,0 5,5 v30.815624999999997 H0 Z" class="node-bkg node-no-border" id="node-9"/><line y2="35.815625" x2="131.15625" y1="35.815625" x1="0" class="node-line-0"/></g><g transform="translate(65.578125, 5)" text-anchor="middle" dominant-baseline="middle" alignment-baseline="middle" dy="1em"><g><rect class="background"/><text y="-10.1"><tspan dy="1.1em" y="-0.1em" x="0" class="text-outer-tspan"><tspan font-weight="normal" class="text-inner-tspan" font-style="normal">Multi-Threading</tspan></tspan></text></g></g></g><g transform="translate(325.1248073869875, 15)" class="mindmap-node section-0"><g><path d="M0 30.815624999999997 v-25.815624999999997 q0,-5 5,-5 h150.546875 q5,0 5,5 v30.815624999999997 H0 Z" class="node-bkg node-no-border" id="node-10"/><line y2="35.815625" x2="160.546875" y1="35.815625" x1="0" class="node-line-0"/></g><g transform="translate(80.2734375, 5)" text-anchor="middle" dominant-baseline="middle" alignment-baseline="middle" dy="1em"><g><rect class="background"/><text y="-10.1"><tspan dy="1.1em" y="-0.1em" x="0" class="text-outer-tspan"><tspan font-weight="normal" class="text-inner-tspan" font-style="normal">Pipelined</tspan><tspan font-weight="normal" class="text-inner-tspan" font-style="normal"> Execution</tspan></tspan></text></g></g></g><g transform="translate(687.9776379406212, 197.4987143358486)" class="mindmap-node section-1"><g><path d="M0 30.815624999999997 v-25.815624999999997 q0,-5 5,-5 h67.796875 q5,0 5,5 v30.815624999999997 H0 Z" class="node-bkg node-no-border" id="node-11"/><line y2="35.815625" x2="77.796875" y1="35.815625" x1="0" class="node-line-1"/></g><g transform="translate(38.8984375, 5)" text-anchor="middle" dominant-baseline="middle" alignment-baseline="middle" dy="1em"><g><rect class="background"/><text y="-10.1"><tspan dy="1.1em" y="-0.1em" x="0" class="text-outer-tspan"><tspan font-weight="normal" class="text-inner-tspan" font-style="normal">Security</tspan></tspan></text></g></g></g><g transform="translate(791.4734015299857, 128.13574274065303)" class="mindmap-node section-1"><g><path d="M0 30.815624999999997 v-25.815624999999997 q0,-5 5,-5 h113.15625 q5,0 5,5 v30.815624999999997 H0 Z" class="node-bkg node-no-border" id="node-12"/><line y2="35.815625" x2="123.15625" y1="35.815625" x1="0" class="node-line-1"/></g><g transform="translate(61.578125, 5)" text-anchor="middle" dominant-baseline="middle" alignment-baseline="middle" dy="1em"><g><rect class="background"/><text y="-10.1"><tspan dy="1.1em" y="-0.1em" x="0" class="text-outer-tspan"><tspan font-weight="normal" class="text-inner-tspan" font-style="normal">Post-Quantum</tspan></tspan></text></g></g></g><g transform="translate(879.4078693744982, 39.87335514872138)" class="mindmap-node section-1"><g><path d="M0 48.41562347412109 v-43.41562347412109 q0,-5 5,-5 h148.390625 q5,0 5,5 v48.41562347412109 H0 Z" class="node-bkg node-no-border" id="node-13"/><line y2="53.41562347412109" x2="158.390625" y1="53.41562347412109" x1="0" class="node-line-1"/></g><g transform="translate(79.1953125, 5)" text-anchor="middle" dominant-baseline="middle" alignment-baseline="middle" dy="1em"><g><rect class="background"/><text y="-10.1"><tspan dy="1.1em" y="-0.1em" x="0" class="text-outer-tspan"><tspan font-weight="normal" class="text-inner-tspan" font-style="normal">Quantum-Resistant</tspan></tspan><tspan dy="1.1em" y="1em" x="0" class="text-outer-tspan"><tspan font-weight="normal" class="text-inner-tspan" font-style="normal">Signatures</tspan></tspan></text></g></g></g><g transform="translate(976.4987966117583, 105.77339309184538)" class="mindmap-node section-1"><g><path d="M0 30.815624999999997 v-25.815624999999997 q0,-5 5,-5 h208.34375 q5,0 5,5 v30.815624999999997 H0 Z" class="node-bkg node-no-border" id="node-14"/><line y2="35.815625" x2="218.34375" y1="35.815625" x1="0" class="node-line-1"/></g><g transform="translate(109.171875, 5)" text-anchor="middle" dominant-baseline="middle" alignment-baseline="middle" dy="1em"><g><rect class="background"/><text y="-10.1"><tspan dy="1.1em" y="-0.1em" x="0" class="text-outer-tspan"><tspan font-weight="normal" class="text-inner-tspan" font-style="normal">Lattice-Based</tspan><tspan font-weight="normal" class="text-inner-tspan" font-style="normal"> Cryptography</tspan></tspan></text></g></g></g><g transform="translate(591.9310536721739, 114.12992787444034)" class="mindmap-node section-1"><g><path d="M0 30.815624999999997 v-25.815624999999997 q0,-5 5,-5 h142.5 q5,0 5,5 v30.815624999999997 H0 Z" class="node-bkg node-no-border" id="node-15"/><line y2="35.815625" x2="152.5" y1="35.815625" x1="0" class="node-line-1"/></g><g transform="translate(76.25, 5)" text-anchor="middle" dominant-baseline="middle" alignment-baseline="middle" dy="1em"><g><rect class="background"/><text y="-10.1"><tspan dy="1.1em" y="-0.1em" x="0" class="text-outer-tspan"><tspan font-weight="normal" class="text-inner-tspan" font-style="normal">Formal</tspan><tspan font-weight="normal" class="text-inner-tspan" font-style="normal"> Verification</tspan></tspan></text></g></g></g><g transform="translate(687.5733582616849, 48.64915032294079)" class="mindmap-node section-1"><g><path d="M0 30.815624999999997 v-25.815624999999997 q0,-5 5,-5 h155.84375 q5,0 5,5 v30.815624999999997 H0 Z" class="node-bkg node-no-border" id="node-16"/><line y2="35.815625" x2="165.84375" y1="35.815625" x1="0" class="node-line-1"/></g><g transform="translate(82.921875, 5)" text-anchor="middle" dominant-baseline="middle" alignment-baseline="middle" dy="1em"><g><rect class="background"/><text y="-10.1"><tspan dy="1.1em" y="-0.1em" x="0" class="text-outer-tspan"><tspan font-weight="normal" class="text-inner-tspan" font-style="normal">Mathematical</tspan><tspan font-weight="normal" class="text-inner-tspan" font-style="normal"> Proofs</tspan></tspan></text></g></g></g><g transform="translate(512.2342146922288, 39.86595122402451)" class="mindmap-node section-1"><g><path d="M0 30.815624999999997 v-25.815624999999997 q0,-5 5,-5 h142.25 q5,0 5,5 v30.815624999999997 H0 Z" class="node-bkg node-no-border" id="node-17"/><line y2="35.815625" x2="152.25" y1="35.815625" x1="0" class="node-line-1"/></g><g transform="translate(76.125, 5)" text-anchor="middle" dominant-baseline="middle" alignment-baseline="middle" dy="1em"><g><rect class="background"/><text y="-10.1"><tspan dy="1.1em" y="-0.1em" x="0" class="text-outer-tspan"><tspan font-weight="normal" class="text-inner-tspan" font-style="normal">Automated</tspan><tspan font-weight="normal" class="text-inner-tspan" font-style="normal"> Testing</tspan></tspan></text></g></g></g><g transform="translate(826.8477716140903, 194.46495996038664)" class="mindmap-node section-1"><g><path d="M0 30.815624999999997 v-25.815624999999997 q0,-5 5,-5 h123.84375 q5,0 5,5 v30.815624999999997 H0 Z" class="node-bkg node-no-border" id="node-18"/><line y2="35.815625" x2="133.84375" y1="35.815625" x1="0" class="node-line-1"/></g><g transform="translate(66.921875, 5)" text-anchor="middle" dominant-baseline="middle" alignment-baseline="middle" dy="1em"><g><rect class="background"/><text y="-10.1"><tspan dy="1.1em" y="-0.1em" x="0" class="text-outer-tspan"><tspan font-weight="normal" class="text-inner-tspan" font-style="normal">Attack</tspan><tspan font-weight="normal" class="text-inner-tspan" font-style="normal"> Modeling</tspan></tspan></text></g></g></g><g transform="translate(753.2179257073542, 268.2334423956098)" class="mindmap-node section-1"><g><path d="M0 30.815624999999997 v-25.815624999999997 q0,-5 5,-5 h165.625 q5,0 5,5 v30.815624999999997 H0 Z" class="node-bkg node-no-border" id="node-19"/><line y2="35.815625" x2="175.625" y1="35.815625" x1="0" class="node-line-1"/></g><g transform="translate(87.8125, 5)" text-anchor="middle" dominant-baseline="middle" alignment-baseline="middle" dy="1em"><g><rect class="background"/><text y="-10.1"><tspan dy="1.1em" y="-0.1em" x="0" class="text-outer-tspan"><tspan font-weight="normal" class="text-inner-tspan" font-style="normal">Adversarial</tspan><tspan font-weight="normal" class="text-inner-tspan" font-style="normal"> Scenarios</tspan></tspan></text></g></g></g><g transform="translate(1015.2637320295928, 185.63588583182639)" class="mindmap-node section-1"><g><path d="M0 30.815624999999997 v-25.815624999999997 q0,-5 5,-5 h143.390625 q5,0 5,5 v30.815624999999997 H0 Z" class="node-bkg node-no-border" id="node-20"/><line y2="35.815625" x2="153.390625" y1="35.815625" x1="0" class="node-line-1"/></g><g transform="translate(76.6953125, 5)" text-anchor="middle" dominant-baseline="middle" alignment-baseline="middle" dy="1em"><g><rect class="background"/><text y="-10.1"><tspan dy="1.1em" y="-0.1em" x="0" class="text-outer-tspan"><tspan font-weight="normal" class="text-inner-tspan" font-style="normal">Economic</tspan><tspan font-weight="normal" class="text-inner-tspan" font-style="normal"> Analysis</tspan></tspan></text></g></g></g><g transform="translate(743.3293819462292, 344.56118128321566)" class="mindmap-node section-2"><g><path d="M0 30.815624999999997 v-25.815624999999997 q0,-5 5,-5 h70.46875 q5,0 5,5 v30.815624999999997 H0 Z" class="node-bkg node-no-border" id="node-21"/><line y2="35.815625" x2="80.46875" y1="35.815625" x1="0" class="node-line-2"/></g><g transform="translate(40.234375, 5)" text-anchor="middle" dominant-baseline="middle" alignment-baseline="middle" dy="1em"><g><rect class="background"/><text y="-10.1"><tspan dy="1.1em" y="-0.1em" x="0" class="text-outer-tspan"><tspan font-weight="normal" class="text-inner-tspan" font-style="normal">Usability</tspan></tspan></text></g></g></g><g transform="translate(720.4703925449999, 442.9433983297471)" class="mindmap-node section-2"><g><path d="M0 30.815624999999997 v-25.815624999999997 q0,-5 5,-5 h124.453125 q5,0 5,5 v30.815624999999997 H0 Z" class="node-bkg node-no-border" id="node-22"/><line y2="35.815625" x2="134.453125" y1="35.815625" x1="0" class="node-line-2"/></g><g transform="translate(67.2265625, 5)" text-anchor="middle" dominant-baseline="middle" alignment-baseline="middle" dy="1em"><g><rect class="background"/><text y="-10.1"><tspan dy="1.1em" y="-0.1em" x="0" class="text-outer-tspan"><tspan font-weight="normal" class="text-inner-tspan" font-style="normal">Developer</tspan><tspan font-weight="normal" class="text-inner-tspan" font-style="normal"> Tools</tspan></tspan></text></g></g></g><g transform="translate(651.3918427177332, 520.937349204482)" class="mindmap-node section-2"><g><path d="M0 30.815624999999997 v-25.815624999999997 q0,-5 5,-5 h122.96875 q5,0 5,5 v30.815624999999997 H0 Z" class="node-bkg node-no-border" id="node-23"/><line y2="35.815625" x2="132.96875" y1="35.815625" x1="0" class="node-line-2"/></g><g transform="translate(66.484375, 5)" text-anchor="middle" dominant-baseline="middle" alignment-baseline="middle" dy="1em"><g><rect class="background"/><text y="-10.1"><tspan dy="1.1em" y="-0.1em" x="0" class="text-outer-tspan"><tspan font-weight="normal" class="text-inner-tspan" font-style="normal">SDK</tspan><tspan font-weight="normal" class="text-inner-tspan" font-style="normal"> Integration</tspan></tspan></text></g></g></g><g transform="translate(812.2203809767423, 508.52420602020436)" class="mindmap-node section-2"><g><path d="M0 30.815624999999997 v-25.815624999999997 q0,-5 5,-5 h153.15625 q5,0 5,5 v30.815624999999997 H0 Z" class="node-bkg node-no-border" id="node-24"/><line y2="35.815625" x2="163.15625" y1="35.815625" x1="0" class="node-line-2"/></g><g transform="translate(81.578125, 5)" text-anchor="middle" dominant-baseline="middle" alignment-baseline="middle" dy="1em"><g><rect class="background"/><text y="-10.1"><tspan dy="1.1em" y="-0.1em" x="0" class="text-outer-tspan"><tspan font-weight="normal" class="text-inner-tspan" font-style="normal">Testing</tspan><tspan font-weight="normal" class="text-inner-tspan" font-style="normal"> Frameworks</tspan></tspan></text></g></g></g><g transform="translate(874.0282722367504, 396.7493189474553)" class="mindmap-node section-2"><g><path d="M0 30.815624999999997 v-25.815624999999997 q0,-5 5,-5 h128.375 q5,0 5,5 v30.815624999999997 H0 Z" class="node-bkg node-no-border" id="node-25"/><line y2="35.815625" x2="138.375" y1="35.815625" x1="0" class="node-line-2"/></g><g transform="translate(69.1875, 5)" text-anchor="middle" dominant-baseline="middle" alignment-baseline="middle" dy="1em"><g><rect class="background"/><text y="-10.1"><tspan dy="1.1em" y="-0.1em" x="0" class="text-outer-tspan"><tspan font-weight="normal" class="text-inner-tspan" font-style="normal">User</tspan><tspan font-weight="normal" class="text-inner-tspan" font-style="normal"> Experience</tspan></tspan></text></g></g></g><g transform="translate(1071.698637106817, 410.08655380303594)" class="mindmap-node section-2"><g><path d="M0 30.815624999999997 v-25.815624999999997 q0,-5 5,-5 h133.921875 q5,0 5,5 v30.815624999999997 H0 Z" class="node-bkg node-no-border" id="node-26"/><line y2="35.815625" x2="143.921875" y1="35.815625" x1="0" class="node-line-2"/></g><g transform="translate(71.9609375, 5)" text-anchor="middle" dominant-baseline="middle" alignment-baseline="middle" dy="1em"><g><rect class="background"/><text y="-10.1"><tspan dy="1.1em" y="-0.1em" x="0" class="text-outer-tspan"><tspan font-weight="normal" class="text-inner-tspan" font-style="normal">Wallet</tspan><tspan font-weight="normal" class="text-inner-tspan" font-style="normal"> Integration</tspan></tspan></text></g></g></g><g transform="translate(967.5574170012605, 462.8116912899111)" class="mindmap-node section-2"><g><path d="M0 30.815624999999997 v-25.815624999999997 q0,-5 5,-5 h143.71875 q5,0 5,5 v30.815624999999997 H0 Z" class="node-bkg node-no-border" id="node-27"/><line y2="35.815625" x2="153.71875" y1="35.815625" x1="0" class="node-line-2"/></g><g transform="translate(76.859375, 5)" text-anchor="middle" dominant-baseline="middle" alignment-baseline="middle" dy="1em"><g><rect class="background"/><text y="-10.1"><tspan dy="1.1em" y="-0.1em" x="0" class="text-outer-tspan"><tspan font-weight="normal" class="text-inner-tspan" font-style="normal">Transaction</tspan><tspan font-weight="normal" class="text-inner-tspan" font-style="normal"> Speed</tspan></tspan></text></g></g></g><g transform="translate(887.7335203415844, 320.39486015374564)" class="mindmap-node section-2"><g><path d="M0 30.815624999999997 v-25.815624999999997 q0,-5 5,-5 h122.96875 q5,0 5,5 v30.815624999999997 H0 Z" class="node-bkg node-no-border" id="node-28"/><line y2="35.815625" x2="132.96875" y1="35.815625" x1="0" class="node-line-2"/></g><g transform="translate(66.484375, 5)" text-anchor="middle" dominant-baseline="middle" alignment-baseline="middle" dy="1em"><g><rect class="background"/><text y="-10.1"><tspan dy="1.1em" y="-0.1em" x="0" class="text-outer-tspan"><tspan font-weight="normal" class="text-inner-tspan" font-style="normal">Integration</tspan><tspan font-weight="normal" class="text-inner-tspan" font-style="normal"> APIs</tspan></tspan></text></g></g></g><g transform="translate(1080.5242450925448, 326.97933648579965)" class="mindmap-node section-2"><g><path d="M0 30.815624999999997 v-25.815624999999997 q0,-5 5,-5 h170.0625 q5,0 5,5 v30.815624999999997 H0 Z" class="node-bkg node-no-border" id="node-29"/><line y2="35.815625" x2="180.0625" y1="35.815625" x1="0" class="node-line-2"/></g><g transform="translate(90.03125, 5)" text-anchor="middle" dominant-baseline="middle" alignment-baseline="middle" dy="1em"><g><rect class="background"/><text y="-10.1"><tspan dy="1.1em" y="-0.1em" x="0" class="text-outer-tspan"><tspan font-weight="normal" class="text-inner-tspan" font-style="normal">Cross-Chain</tspan><tspan font-weight="normal" class="text-inner-tspan" font-style="normal"> Protocols</tspan></tspan></text></g></g></g><g transform="translate(1017.0250036459322, 266.1771481154193)" class="mindmap-node section-2"><g><path d="M0 30.815624999999997 v-25.815624999999997 q0,-5 5,-5 h149.640625 q5,0 5,5 v30.815624999999997 H0 Z" class="node-bkg node-no-border" id="node-30"/><line y2="35.815625" x2="159.640625" y1="35.815625" x1="0" class="node-line-2"/></g><g transform="translate(79.8203125, 5)" text-anchor="middle" dominant-baseline="middle" alignment-baseline="middle" dy="1em"><g><rect class="background"/><text y="-10.1"><tspan dy="1.1em" y="-0.1em" x="0" class="text-outer-tspan"><tspan font-weight="normal" class="text-inner-tspan" font-style="normal">Standard</tspan><tspan font-weight="normal" class="text-inner-tspan" font-style="normal"> Interfaces</tspan></tspan></text></g></g></g><g transform="translate(451.9109004119098, 364.5130140594375)" class="mindmap-node section-3"><g><path d="M0 30.815624999999997 v-25.815624999999997 q0,-5 5,-5 h114.953125 q5,0 5,5 v30.815624999999997 H0 Z" class="node-bkg node-no-border" id="node-31"/><line y2="35.815625" x2="124.953125" y1="35.815625" x1="0" class="node-line-3"/></g><g transform="translate(62.4765625, 5)" text-anchor="middle" dominant-baseline="middle" alignment-baseline="middle" dy="1em"><g><rect class="background"/><text y="-10.1"><tspan dy="1.1em" y="-0.1em" x="0" class="text-outer-tspan"><tspan font-weight="normal" class="text-inner-tspan" font-style="normal">Interoperability</tspan></tspan></text></g></g></g><g transform="translate(506.17993185092087, 453.0412045104333)" class="mindmap-node section-3"><g><path d="M0 30.815624999999997 v-25.815624999999997 q0,-5 5,-5 h98.921875 q5,0 5,5 v30.815624999999997 H0 Z" class="node-bkg node-no-border" id="node-32"/><line y2="35.815625" x2="108.921875" y1="35.815625" x1="0" class="node-line-3"/></g><g transform="translate(54.4609375, 5)" text-anchor="middle" dominant-baseline="middle" alignment-baseline="middle" dy="1em"><g><rect class="background"/><text y="-10.1"><tspan dy="1.1em" y="-0.1em" x="0" class="text-outer-tspan"><tspan font-weight="normal" class="text-inner-tspan" font-style="normal">Cross-Chain</tspan></tspan></text></g></g></g><g transform="translate(605.7957190383777, 393.87924459244243)" class="mindmap-node section-3"><g><path d="M0 30.815624999999997 v-25.815624999999997 q0,-5 5,-5 h118.5 q5,0 5,5 v30.815624999999997 H0 Z" class="node-bkg node-no-border" id="node-33"/><line y2="35.815625" x2="128.5" y1="35.815625" x1="0" class="node-line-3"/></g><g transform="translate(64.25, 5)" text-anchor="middle" dominant-baseline="middle" alignment-baseline="middle" dy="1em"><g><rect class="background"/><text y="-10.1"><tspan dy="1.1em" y="-0.1em" x="0" class="text-outer-tspan"><tspan font-weight="normal" class="text-inner-tspan" font-style="normal">Bridge</tspan><tspan font-weight="normal" class="text-inner-tspan" font-style="normal"> Security</tspan></tspan></text></g></g></g><g transform="translate(494.5230196753582, 544.943150926048)" class="mindmap-node section-3"><g><path d="M0 30.815624999999997 v-25.815624999999997 q0,-5 5,-5 h113.8203125 q5,0 5,5 v30.815624999999997 H0 Z" class="node-bkg node-no-border" id="node-34"/><line y2="35.815625" x2="123.8203125" y1="35.815625" x1="0" class="node-line-3"/></g><g transform="translate(61.91015625, 5)" text-anchor="middle" dominant-baseline="middle" alignment-baseline="middle" dy="1em"><g><rect class="background"/><text y="-10.1"><tspan dy="1.1em" y="-0.1em" x="0" class="text-outer-tspan"><tspan font-weight="normal" class="text-inner-tspan" font-style="normal">Asset</tspan><tspan font-weight="normal" class="text-inner-tspan" font-style="normal"> Transfer</tspan></tspan></text></g></g></g><g transform="translate(353.28123772038725, 436.5568234811709)" class="mindmap-node section-3"><g><path d="M0 30.815624999999997 v-25.815624999999997 q0,-5 5,-5 h107.8125 q5,0 5,5 v30.815624999999997 H0 Z" class="node-bkg node-no-border" id="node-35"/><line y2="35.815625" x2="117.8125" y1="35.815625" x1="0" class="node-line-3"/></g><g transform="translate(58.90625, 5)" text-anchor="middle" dominant-baseline="middle" alignment-baseline="middle" dy="1em"><g><rect class="background"/><text y="-10.1"><tspan dy="1.1em" y="-0.1em" x="0" class="text-outer-tspan"><tspan font-weight="normal" class="text-inner-tspan" font-style="normal">Multi-Protocol</tspan></tspan></text></g></g></g><g transform="translate(277.1333569115186, 521.5074680594136)" class="mindmap-node section-3"><g><path d="M0 30.815624999999997 v-25.815624999999997 q0,-5 5,-5 h173.65625 q5,0 5,5 v30.815624999999997 H0 Z" class="node-bkg node-no-border" id="node-36"/><line y2="35.815625" x2="183.65625" y1="35.815625" x1="0" class="node-line-3"/></g><g transform="translate(91.828125, 5)" text-anchor="middle" dominant-baseline="middle" alignment-baseline="middle" dy="1em"><g><rect class="background"/><text y="-10.1"><tspan dy="1.1em" y="-0.1em" x="0" class="text-outer-tspan"><tspan font-weight="normal" class="text-inner-tspan" font-style="normal">Consensus</tspan><tspan font-weight="normal" class="text-inner-tspan" font-style="normal"> Abstraction</tspan></tspan></text></g></g></g><g transform="translate(132.09784989847424, 476.1726746012064)" class="mindmap-node section-3"><g><path d="M0 30.815624999999997 v-25.815624999999997 q0,-5 5,-5 h154.078125 q5,0 5,5 v30.815624999999997 H0 Z" class="node-bkg node-no-border" id="node-37"/><line y2="35.815625" x2="164.078125" y1="35.815625" x1="0" class="node-line-3"/></g><g transform="translate(82.0390625, 5)" text-anchor="middle" dominant-baseline="middle" alignment-baseline="middle" dy="1em"><g><rect class="background"/><text y="-10.1"><tspan dy="1.1em" y="-0.1em" x="0" class="text-outer-tspan"><tspan font-weight="normal" class="text-inner-tspan" font-style="normal">Universal</tspan><tspan font-weight="normal" class="text-inner-tspan" font-style="normal"> Standards</tspan></tspan></text></g></g></g><g transform="translate(252.31692782139396, 382.63597207549094)" class="mindmap-node section-3"><g><path d="M0 30.815624999999997 v-25.815624999999997 q0,-5 5,-5 h118.5 q5,0 5,5 v30.815624999999997 H0 Z" class="node-bkg node-no-border" id="node-38"/><line y2="35.815625" x2="128.5" y1="35.815625" x1="0" class="node-line-3"/></g><g transform="translate(64.25, 5)" text-anchor="middle" dominant-baseline="middle" alignment-baseline="middle" dy="1em"><g><rect class="background"/><text y="-10.1"><tspan dy="1.1em" y="-0.1em" x="0" class="text-outer-tspan"><tspan font-weight="normal" class="text-inner-tspan" font-style="normal">Bridge</tspan><tspan font-weight="normal" class="text-inner-tspan" font-style="normal"> Security</tspan></tspan></text></g></g></g><g transform="translate(79.54086578541126, 341.5472678680311)" class="mindmap-node section-3"><g><path d="M0 30.815624999999997 v-25.815624999999997 q0,-5 5,-5 h108.4375 q5,0 5,5 v30.815624999999997 H0 Z" class="node-bkg node-no-border" id="node-39"/><line y2="35.815625" x2="118.4375" y1="35.815625" x1="0" class="node-line-3"/></g><g transform="translate(59.21875, 5)" text-anchor="middle" dominant-baseline="middle" alignment-baseline="middle" dy="1em"><g><rect class="background"/><text y="-10.1"><tspan dy="1.1em" y="-0.1em" x="0" class="text-outer-tspan"><tspan font-weight="normal" class="text-inner-tspan" font-style="normal">Validator</tspan><tspan font-weight="normal" class="text-inner-tspan" font-style="normal"> Sets</tspan></tspan></text></g></g></g><g transform="translate(15, 421.48637948781766)" class="mindmap-node section-3"><g><path d="M0 30.815624999999997 v-25.815624999999997 q0,-5 5,-5 h168.3125 q5,0 5,5 v30.815624999999997 H0 Z" class="node-bkg node-no-border" id="node-40"/><line y2="35.815625" x2="178.3125" y1="35.815625" x1="0" class="node-line-3"/></g><g transform="translate(89.15625, 5)" text-anchor="middle" dominant-baseline="middle" alignment-baseline="middle" dy="1em"><g><rect class="background"/><text y="-10.1"><tspan dy="1.1em" y="-0.1em" x="0" class="text-outer-tspan"><tspan font-weight="normal" class="text-inner-tspan" font-style="normal">Economic</tspan><tspan font-weight="normal" class="text-inner-tspan" font-style="normal"> Guarantees</tspan></tspan></text></g></g></g></g></svg>