<svg aria-roledescription="mindmap" role="graphics-document document" viewBox="5 5 1274.01708984375 581.7398071289062" style="max-width: 1274.02px; background-color: transparent;" xmlns:xlink="http://www.w3.org/1999/xlink" xmlns="http://www.w3.org/2000/svg" width="100%" id="my-svg"><style>#my-svg{font-family:"trebuchet ms",verdana,arial,sans-serif;font-size:16px;fill:#333;}#my-svg .error-icon{fill:hsl(180, 0%, 100%);}#my-svg .error-text{fill:rgb(0, 0, 0);stroke:rgb(0, 0, 0);}#my-svg .edge-thickness-normal{stroke-width:2px;}#my-svg .edge-thickness-thick{stroke-width:3.5px;}#my-svg .edge-pattern-solid{stroke-dasharray:0;}#my-svg .edge-pattern-dashed{stroke-dasharray:3;}#my-svg .edge-pattern-dotted{stroke-dasharray:2;}#my-svg .marker{fill:#0b0b0b;stroke:#0b0b0b;}#my-svg .marker.cross{stroke:#0b0b0b;}#my-svg svg{font-family:"trebuchet ms",verdana,arial,sans-serif;font-size:16px;}#my-svg .edge{stroke-width:3;}#my-svg .section--1 rect,#my-svg .section--1 path,#my-svg .section--1 circle,#my-svg .section--1 polygon,#my-svg .section--1 path{fill:hsl(0, 0%, 75%);}#my-svg .section--1 text{fill:#333;}#my-svg .node-icon--1{font-size:40px;color:#333;}#my-svg .section-edge--1{stroke:hsl(0, 0%, 75%);}#my-svg .edge-depth--1{stroke-width:17;}#my-svg .section--1 line{stroke:rgb(63.75, 63.75, 63.75);stroke-width:3;}#my-svg .disabled,#my-svg .disabled circle,#my-svg .disabled text{fill:lightgray;}#my-svg .disabled text{fill:#efefef;}#my-svg .section-0 rect,#my-svg .section-0 path,#my-svg .section-0 circle,#my-svg .section-0 polygon,#my-svg .section-0 path{fill:hsl(-120, 0%, 75%);}#my-svg .section-0 text{fill:#333;}#my-svg .node-icon-0{font-size:40px;color:#333;}#my-svg .section-edge-0{stroke:hsl(-120, 0%, 75%);}#my-svg .edge-depth-0{stroke-width:14;}#my-svg .section-0 line{stroke:rgb(63.75, 63.75, 63.75);stroke-width:3;}#my-svg .disabled,#my-svg .disabled circle,#my-svg .disabled text{fill:lightgray;}#my-svg .disabled text{fill:#efefef;}#my-svg .section-1 rect,#my-svg .section-1 path,#my-svg .section-1 circle,#my-svg .section-1 polygon,#my-svg .section-1 path{fill:hsl(180, 0%, 75%);}#my-svg .section-1 text{fill:#333;}#my-svg .node-icon-1{font-size:40px;color:#333;}#my-svg .section-edge-1{stroke:hsl(180, 0%, 75%);}#my-svg .edge-depth-1{stroke-width:11;}#my-svg .section-1 line{stroke:rgb(63.75, 63.75, 63.75);stroke-width:3;}#my-svg .disabled,#my-svg .disabled circle,#my-svg .disabled text{fill:lightgray;}#my-svg .disabled text{fill:#efefef;}#my-svg .section-2 rect,#my-svg .section-2 path,#my-svg .section-2 circle,#my-svg .section-2 polygon,#my-svg .section-2 path{fill:hsl(30, 0%, 75%);}#my-svg .section-2 text{fill:#333;}#my-svg .node-icon-2{font-size:40px;color:#333;}#my-svg .section-edge-2{stroke:hsl(30, 0%, 75%);}#my-svg .edge-depth-2{stroke-width:8;}#my-svg .section-2 line{stroke:rgb(63.75, 63.75, 63.75);stroke-width:3;}#my-svg .disabled,#my-svg .disabled circle,#my-svg .disabled text{fill:lightgray;}#my-svg .disabled text{fill:#efefef;}#my-svg .section-3 rect,#my-svg .section-3 path,#my-svg .section-3 circle,#my-svg .section-3 polygon,#my-svg .section-3 path{fill:hsl(60, 0%, 75%);}#my-svg .section-3 text{fill:#333;}#my-svg .node-icon-3{font-size:40px;color:#333;}#my-svg .section-edge-3{stroke:hsl(60, 0%, 75%);}#my-svg .edge-depth-3{stroke-width:5;}#my-svg .section-3 line{stroke:rgb(63.75, 63.75, 63.75);stroke-width:3;}#my-svg .disabled,#my-svg .disabled circle,#my-svg .disabled text{fill:lightgray;}#my-svg .disabled text{fill:#efefef;}#my-svg .section-4 rect,#my-svg .section-4 path,#my-svg .section-4 circle,#my-svg .section-4 polygon,#my-svg .section-4 path{fill:hsl(90, 0%, 75%);}#my-svg .section-4 text{fill:#333;}#my-svg .node-icon-4{font-size:40px;color:#333;}#my-svg .section-edge-4{stroke:hsl(90, 0%, 75%);}#my-svg .edge-depth-4{stroke-width:2;}#my-svg .section-4 line{stroke:rgb(63.75, 63.75, 63.75);stroke-width:3;}#my-svg .disabled,#my-svg .disabled circle,#my-svg .disabled text{fill:lightgray;}#my-svg .disabled text{fill:#efefef;}#my-svg .section-5 rect,#my-svg .section-5 path,#my-svg .section-5 circle,#my-svg .section-5 polygon,#my-svg .section-5 path{fill:hsl(120, 0%, 75%);}#my-svg .section-5 text{fill:#333;}#my-svg .node-icon-5{font-size:40px;color:#333;}#my-svg .section-edge-5{stroke:hsl(120, 0%, 75%);}#my-svg .edge-depth-5{stroke-width:-1;}#my-svg .section-5 line{stroke:rgb(63.75, 63.75, 63.75);stroke-width:3;}#my-svg .disabled,#my-svg .disabled circle,#my-svg .disabled text{fill:lightgray;}#my-svg .disabled text{fill:#efefef;}#my-svg .section-6 rect,#my-svg .section-6 path,#my-svg .section-6 circle,#my-svg .section-6 polygon,#my-svg .section-6 path{fill:hsl(150, 0%, 75%);}#my-svg .section-6 text{fill:#333;}#my-svg .node-icon-6{font-size:40px;color:#333;}#my-svg .section-edge-6{stroke:hsl(150, 0%, 75%);}#my-svg .edge-depth-6{stroke-width:-4;}#my-svg .section-6 line{stroke:rgb(63.75, 63.75, 63.75);stroke-width:3;}#my-svg .disabled,#my-svg .disabled circle,#my-svg .disabled text{fill:lightgray;}#my-svg .disabled text{fill:#efefef;}#my-svg .section-7 rect,#my-svg .section-7 path,#my-svg .section-7 circle,#my-svg .section-7 polygon,#my-svg .section-7 path{fill:hsl(210, 0%, 75%);}#my-svg .section-7 text{fill:#333;}#my-svg .node-icon-7{font-size:40px;color:#333;}#my-svg .section-edge-7{stroke:hsl(210, 0%, 75%);}#my-svg .edge-depth-7{stroke-width:-7;}#my-svg .section-7 line{stroke:rgb(63.75, 63.75, 63.75);stroke-width:3;}#my-svg .disabled,#my-svg .disabled circle,#my-svg .disabled text{fill:lightgray;}#my-svg .disabled text{fill:#efefef;}#my-svg .section-8 rect,#my-svg .section-8 path,#my-svg .section-8 circle,#my-svg .section-8 polygon,#my-svg .section-8 path{fill:hsl(270, 0%, 75%);}#my-svg .section-8 text{fill:#333;}#my-svg .node-icon-8{font-size:40px;color:#333;}#my-svg .section-edge-8{stroke:hsl(270, 0%, 75%);}#my-svg .edge-depth-8{stroke-width:-10;}#my-svg .section-8 line{stroke:rgb(63.75, 63.75, 63.75);stroke-width:3;}#my-svg .disabled,#my-svg .disabled circle,#my-svg .disabled text{fill:lightgray;}#my-svg .disabled text{fill:#efefef;}#my-svg .section-9 rect,#my-svg .section-9 path,#my-svg .section-9 circle,#my-svg .section-9 polygon,#my-svg .section-9 path{fill:hsl(300, 0%, 75%);}#my-svg .section-9 text{fill:#333;}#my-svg .node-icon-9{font-size:40px;color:#333;}#my-svg .section-edge-9{stroke:hsl(300, 0%, 75%);}#my-svg .edge-depth-9{stroke-width:-13;}#my-svg .section-9 line{stroke:rgb(63.75, 63.75, 63.75);stroke-width:3;}#my-svg .disabled,#my-svg .disabled circle,#my-svg .disabled text{fill:lightgray;}#my-svg .disabled text{fill:#efefef;}#my-svg .section-10 rect,#my-svg .section-10 path,#my-svg .section-10 circle,#my-svg .section-10 polygon,#my-svg .section-10 path{fill:hsl(330, 0%, 75%);}#my-svg .section-10 text{fill:#333;}#my-svg .node-icon-10{font-size:40px;color:#333;}#my-svg .section-edge-10{stroke:hsl(330, 0%, 75%);}#my-svg .edge-depth-10{stroke-width:-16;}#my-svg .section-10 line{stroke:rgb(63.75, 63.75, 63.75);stroke-width:3;}#my-svg .disabled,#my-svg .disabled circle,#my-svg .disabled text{fill:lightgray;}#my-svg .disabled text{fill:#efefef;}#my-svg .section-root rect,#my-svg .section-root path,#my-svg .section-root circle,#my-svg .section-root polygon{fill:hsl(0, 0%, 75%);}#my-svg .section-root text{fill:#333;}#my-svg .icon-container{height:100%;display:flex;justify-content:center;align-items:center;}#my-svg .edge{fill:none;}#my-svg .mindmap-node-label{dy:1em;alignment-baseline:middle;text-anchor:middle;dominant-baseline:middle;text-align:center;}#my-svg :root{--mermaid-font-family:"trebuchet ms",verdana,arial,sans-serif;}</style><g/><g class="mindmap-edges"><path class="edge section-edge-0 edge-depth-2" d="M 296.61824031444206,175.25329776865618 L 273.31803523946894,140.44167828784478 L250.01783016449582,105.63005880703336"/><path class="edge section-edge-0 edge-depth-2" d="M 290.551715652829,191.8845385326519 L 226.68849723594138,210.34684509893944 L162.8252788190538,228.80915166522698"/><path class="edge section-edge-0 edge-depth-1" d="M 448.9375047112227,225.84342634784133 L 384.19969941087567,208.70091418923099 L319.46189411052865,191.55840203062064"/><path class="edge section-edge-0 edge-depth-2" d="M 414.7717678287158,308.0645852877484 L 370.7242123498832,286.6521096247638 L326.6766568710506,265.2396339617792"/><path class="edge section-edge-0 edge-depth-2" d="M 413.3083135050941,315.7975000549569 L 352.0609915019941,320.60961490521555 L290.81366949889417,325.4217297554742"/><path class="edge section-edge-0 edge-depth-1" d="M 457.6985527770021,243.54170797609845 L 445.84998891336215,272.15283501310296 L434.00142504972223,300.76396205010747"/><path class="edge section-edge-0 edge-depth-2" d="M 396.6779573796539,136.71645424273535 L 297.7431442654821,142.36845794145503 L198.80833115131028,148.02046164017472"/><path class="edge section-edge-0 edge-depth-2" d="M 415.6224651145964,121.39552652447574 L 423.6532034318909,92.12619534487985 L431.6839417491854,62.85686416528394"/><path class="edge section-edge-0 edge-depth-1" d="M 456.1894145894384,216.55061223966163 L 437.54564415800013,182.77199928560458 L418.90187372656186,148.99338633154758"/><path class="edge section-edge-0 edge-depth-0" d="M 616.6521857786927,291.73850776483044 L 546.9964360206601,263.52630020363875 L477.34068626262757,235.31409264244706"/><path class="edge section-edge-1 edge-depth-2" d="M 868.195212620438,134.25101055466334 L 951.1451890385587,115.9227678041359 L1034.0951654566793,97.59452505360846"/><path class="edge section-edge-1 edge-depth-2" d="M 856.0172223684498,122.69183266125836 L 861.2290000518154,91.45696167744043 L866.4407777351811,60.22209069362249"/><path class="edge section-edge-1 edge-depth-1" d="M 753.6396958197454,202.46235630601234 L 797.3067529956826,174.06375216410476 L840.9738101716198,145.66514802219723"/><path class="edge section-edge-1 edge-depth-2" d="M 677.771581076395,106.95526237527642 L 662.1764160382675,76.9589740761963 L646.5812510001399,46.96268577711619"/><path class="edge section-edge-1 edge-depth-2" d="M 672.4224344895582,128.89455721614252 L 639.3684204718751,152.1471930096591 L606.314406454192,175.3998288031757"/><path class="edge section-edge-1 edge-depth-1" d="M 733.1262725369587,197.9132294788888 L 712.8779377664225,165.45213161291818 L692.6296029958863,132.99103374694755"/><path class="edge section-edge-1 edge-depth-2" d="M 925.8183725150009,200.26834923385604 L 1015.3737149234003,189.68285051011412 L1104.9290573317996,179.09735178637214"/><path class="edge section-edge-1 edge-depth-2" d="M 900.1706973874471,212.48892604854433 L 874.8497281967789,237.12325353770856 L849.5287590061106,261.7575810268728"/><path class="edge section-edge-1 edge-depth-1" d="M 756.0457791752408,209.88075253558375 L 825.9935452600561,206.33466136631924 L895.9413113448713,202.78857019705472"/><path class="edge section-edge-1 edge-depth-0" d="M 642.3550787407827,288.1087962728516 L 685.8100706265631,254.00487195572043 L729.2650625123434,219.90094763858932"/><path class="edge section-edge-2 edge-depth-2" d="M 872.2569093607691,461.4906220279868 L 894.9590574197405,490.7680396722492 L917.6612054787118,520.0454573165116"/><path class="edge section-edge-2 edge-depth-2" d="M 848.4901885471234,446.091746805513 L 769.1516039560738,426.7945681049459 L689.8130193650243,407.49738940437874"/><path class="edge section-edge-2 edge-depth-1" d="M 820.4288836737721,370.0965055794771 L 838.2037643520787,403.2564251274184 L855.9786450303852,436.41634467535977"/><path class="edge section-edge-2 edge-depth-2" d="M 1002.8296213479978,411.7712397498259 L 1027.9889654470308,439.3614754489082 L1053.1483095460635,466.9517111479905"/><path class="edge section-edge-2 edge-depth-2" d="M 1007.5969126823577,402.6248611366426 L 1093.4362016120078,413.80463982868554 L1179.275490541658,424.98441852072847"/><path class="edge section-edge-2 edge-depth-1" d="M 827.9139447985551,360.43503415768646 L 903.0324019847609,378.7818411084585 L978.1508591709667,397.1286480592305"/><path class="edge section-edge-2 edge-depth-2" d="M 999.185795580068,315.34189112465964 L 1055.8957838997462,292.51856252454087 L1112.6057722194244,269.6952339244221"/><path class="edge section-edge-2 edge-depth-2" d="M 1000.2368442709546,321.94596261192044 L 1086.7906789717244,327.7508702203755 L1173.3445136724945,333.5557778288305"/><path class="edge section-edge-2 edge-depth-1" d="M 828.0250012625497,353.80730649501595 L 899.3063664984409,338.9091420562787 L970.5877317343318,324.01097761754147"/><path class="edge section-edge-2 edge-depth-0" d="M 644.8183221304727,302.0129221477067 L 721.9486952652582,327.12279723379714 L799.0790684000436,352.23267231988757"/><path class="edge section-edge-3 edge-depth-2" d="M 410.99045339136575,470.8068707563378 L 405.8836158916406,501.9400472914241 L400.77677839191546,533.0732238265105"/><path class="edge section-edge-3 edge-depth-2" d="M 398.9593985098188,459.99652882291565 L 329.92099684240804,479.0565441084971 L260.88259517499716,498.1165593940786"/><path class="edge section-edge-3 edge-depth-1" d="M 489.402758892949,388.13364188987214 L 457.00413256590264,417.0729014305392 L424.60550623885626,446.0121609712063"/><path class="edge section-edge-3 edge-depth-2" d="M 564.7142601798421,479.6610043475182 L 572.6533661321488,511.59500846056756 L580.5924720844555,543.529012573617"/><path class="edge section-edge-3 edge-depth-2" d="M 575.6437299268666,468.7568534302965 L 653.5602589544771,488.3196530761249 L731.4767879820877,507.8824527219533"/><path class="edge section-edge-3 edge-depth-1" d="M 509.15665297824387,390.4540641705014 L 530.8425276911511,421.6226170197408 L552.5284024040583,452.7911698689802"/><path class="edge section-edge-3 edge-depth-2" d="M 284.5910149444669,399.84921376938166 L 208.4582549611775,384.4439204385728 L132.32549497788807,369.0386271077639"/><path class="edge section-edge-3 edge-depth-2" d="M 284.74806012384136,406.4906448663635 L 200.7969155168425,427.6530858102723 L116.84577090984362,448.81552675418106"/><path class="edge section-edge-3 edge-depth-1" d="M 485.7012914101688,379.96674404551516 L 399.94141474535763,390.48262699123865 L314.1815380805465,400.99850993696214"/><path class="edge section-edge-3 edge-depth-0" d="M 617.8150666972659,305.28728473696714 L 565.5724515096272,337.7553195030161 L513.3298363219884,370.22335426906506"/></g><g class="mindmap-nodes"><g transform="translate(534.586373312224, 278.7156163379972)" class="mindmap-node section--1 section-root"><g><path d="M0 0 a28.790625,28.790625 0 0,1 47.984375,-19.19375&#10;      a67.178125,67.178125 1 0,1 76.775,-19.19375&#10;      a47.984375,47.984375 1 0,1 67.178125,38.3875&#10;&#10;      a28.790625,28.790625 1 0,1 28.790625,13.057734374999999&#10;      a38.3875,38.3875 1 0,1 -28.790625,24.250078124999998&#10;&#10;      a47.984375,28.790625 1 0,1 -47.984375,28.790625&#10;      a67.178125,67.178125 1 0,1 -95.96875,0&#10;      a28.790625,28.790625 1 0,1 -47.984375,-28.790625&#10;&#10;      a28.790625,28.790625 1 0,1 -19.19375,-13.057734374999999&#10;      a38.3875,38.3875 1 0,1 19.19375,-24.250078124999998&#10;&#10;    H0 V0 Z" class="node-bkg node-cloud" id="node-0"/></g><g transform="translate(95.96875, 5)" text-anchor="middle" dominant-baseline="middle" alignment-baseline="middle" dy="1em"><g><rect class="background"/><text y="-10.1"><tspan dy="1.1em" y="-0.1em" x="0" class="text-outer-tspan"><tspan font-weight="normal" class="text-inner-tspan" font-style="normal">BFT</tspan><tspan font-weight="normal" class="text-inner-tspan" font-style="normal"> Research</tspan><tspan font-weight="normal" class="text-inner-tspan" font-style="normal"> Directions</tspan></tspan></text></g></g></g><g transform="translate(416.36743622909614, 211.02917156928038)" class="mindmap-node section-0"><g><path d="M0 32.3078125 v-27.307812499999997 q0,-5 5,-5 h84.140625 q5,0 5,5 v32.3078125 H0 Z" class="node-bkg node-no-border" id="node-1"/><line y2="37.3078125" x2="94.140625" y1="37.3078125" x1="0" class="node-line-0"/></g><g transform="translate(47.0703125, 5)" text-anchor="middle" dominant-baseline="middle" alignment-baseline="middle" dy="1em"><g><rect class="background"/><text y="-10.1"><tspan dy="1.1em" y="-0.1em" x="0" class="text-outer-tspan"><tspan font-weight="normal" class="text-inner-tspan" font-style="normal">Scalability</tspan></tspan></text></g></g></g><g transform="translate(264.3054000926552, 169.06484430918158)" class="mindmap-node section-0"><g><path d="M0 32.3078125 v-27.307812499999997 q0,-5 5,-5 h71.3125 q5,0 5,5 v32.3078125 H0 Z" class="node-bkg node-no-border" id="node-2"/><line y2="37.3078125" x2="81.3125" y1="37.3078125" x1="0" class="node-line-0"/></g><g transform="translate(40.65625, 5)" text-anchor="middle" dominant-baseline="middle" alignment-baseline="middle" dy="1em"><g><rect class="background"/><text y="-10.1"><tspan dy="1.1em" y="-0.1em" x="0" class="text-outer-tspan"><tspan font-weight="normal" class="text-inner-tspan" font-style="normal">Sharding</tspan></tspan></text></g></g></g><g transform="translate(132.0103578862827, 74.51069976650797)" class="mindmap-node section-0"><g><path d="M0 32.3078125 v-27.307812499999997 q0,-5 5,-5 h209.328125 q5,0 5,5 v32.3078125 H0 Z" class="node-bkg node-no-border" id="node-3"/><line y2="37.3078125" x2="219.328125" y1="37.3078125" x1="0" class="node-line-0"/></g><g transform="translate(109.6640625, 5)" text-anchor="middle" dominant-baseline="middle" alignment-baseline="middle" dy="1em"><g><rect class="background"/><text y="-10.1"><tspan dy="1.1em" y="-0.1em" x="0" class="text-outer-tspan"><tspan font-weight="normal" class="text-inner-tspan" font-style="normal">Cross-Shard</tspan><tspan font-weight="normal" class="text-inner-tspan" font-style="normal"> Communication</tspan></tspan></text></g></g></g><g transform="translate(75.61065687922758, 214.3210333886973)" class="mindmap-node section-0"><g><path d="M0 32.3078125 v-27.307812499999997 q0,-5 5,-5 h135.609375 q5,0 5,5 v32.3078125 H0 Z" class="node-bkg node-no-border" id="node-4"/><line y2="37.3078125" x2="145.609375" y1="37.3078125" x1="0" class="node-line-0"/></g><g transform="translate(72.8046875, 5)" text-anchor="middle" dominant-baseline="middle" alignment-baseline="middle" dy="1em"><g><rect class="background"/><text y="-10.1"><tspan dy="1.1em" y="-0.1em" x="0" class="text-outer-tspan"><tspan font-weight="normal" class="text-inner-tspan" font-style="normal">State</tspan><tspan font-weight="normal" class="text-inner-tspan" font-style="normal"> Partitioning</tspan></tspan></text></g></g></g><g transform="translate(391.98488534762816, 295.9686859569256)" class="mindmap-node section-0"><g><path d="M0 32.3078125 v-27.307812499999997 q0,-5 5,-5 h62.5546875 q5,0 5,5 v32.3078125 H0 Z" class="node-bkg node-no-border" id="node-5"/><line y2="37.3078125" x2="72.5546875" y1="37.3078125" x1="0" class="node-line-0"/></g><g transform="translate(36.27734375, 5)" text-anchor="middle" dominant-baseline="middle" alignment-baseline="middle" dy="1em"><g><rect class="background"/><text y="-10.1"><tspan dy="1.1em" y="-0.1em" x="0" class="text-outer-tspan"><tspan font-weight="normal" class="text-inner-tspan" font-style="normal">Layer</tspan><tspan font-weight="normal" class="text-inner-tspan" font-style="normal"> 2</tspan></tspan></text></g></g></g><g transform="translate(277.77603935213824, 240.02772079260203)" class="mindmap-node section-0"><g><path d="M0 32.3078125 v-27.307812499999997 q0,-5 5,-5 h60.8203125 q5,0 5,5 v32.3078125 H0 Z" class="node-bkg node-no-border" id="node-6"/><line y2="37.3078125" x2="70.8203125" y1="37.3078125" x1="0" class="node-line-0"/></g><g transform="translate(35.41015625, 5)" text-anchor="middle" dominant-baseline="middle" alignment-baseline="middle" dy="1em"><g><rect class="background"/><text y="-10.1"><tspan dy="1.1em" y="-0.1em" x="0" class="text-outer-tspan"><tspan font-weight="normal" class="text-inner-tspan" font-style="normal">Rollups</tspan></tspan></text></g></g></g><g transform="translate(212.62928515636008, 307.94273135350556)" class="mindmap-node section-0"><g><path d="M0 32.3078125 v-27.307812499999997 q0,-5 5,-5 h116.4609375 q5,0 5,5 v32.3078125 H0 Z" class="node-bkg node-no-border" id="node-7"/><line y2="37.3078125" x2="126.4609375" y1="37.3078125" x1="0" class="node-line-0"/></g><g transform="translate(63.23046875, 5)" text-anchor="middle" dominant-baseline="middle" alignment-baseline="middle" dy="1em"><g><rect class="background"/><text y="-10.1"><tspan dy="1.1em" y="-0.1em" x="0" class="text-outer-tspan"><tspan font-weight="normal" class="text-inner-tspan" font-style="normal">State</tspan><tspan font-weight="normal" class="text-inner-tspan" font-style="normal"> Channels</tspan></tspan></text></g></g></g><g transform="translate(335.9308833369041, 117.20701450192882)" class="mindmap-node section-0"><g><path d="M0 32.3078125 v-27.307812499999997 q0,-5 5,-5 h141.4453125 q5,0 5,5 v32.3078125 H0 Z" class="node-bkg node-no-border" id="node-8"/><line y2="37.3078125" x2="151.4453125" y1="37.3078125" x1="0" class="node-line-0"/></g><g transform="translate(75.72265625, 5)" text-anchor="middle" dominant-baseline="middle" alignment-baseline="middle" dy="1em"><g><rect class="background"/><text y="-10.1"><tspan dy="1.1em" y="-0.1em" x="0" class="text-outer-tspan"><tspan font-weight="normal" class="text-inner-tspan" font-style="normal">Parallel</tspan><tspan font-weight="normal" class="text-inner-tspan" font-style="normal"> Consensus</tspan></tspan></text></g></g></g><g transform="translate(117.21946769406009, 130.22208888098123)" class="mindmap-node section-0"><g><path d="M0 32.3078125 v-27.307812499999997 q0,-5 5,-5 h123.2265625 q5,0 5,5 v32.3078125 H0 Z" class="node-bkg node-no-border" id="node-9"/><line y2="37.3078125" x2="133.2265625" y1="37.3078125" x1="0" class="node-line-0"/></g><g transform="translate(66.61328125, 5)" text-anchor="middle" dominant-baseline="middle" alignment-baseline="middle" dy="1em"><g><rect class="background"/><text y="-10.1"><tspan dy="1.1em" y="-0.1em" x="0" class="text-outer-tspan"><tspan font-weight="normal" class="text-inner-tspan" font-style="normal">Multi-Threading</tspan></tspan></text></g></g></g><g transform="translate(355.1177110268777, 29.737563687830857)" class="mindmap-node section-0"><g><path d="M0 32.3078125 v-27.307812499999997 q0,-5 5,-5 h151.0703125 q5,0 5,5 v32.3078125 H0 Z" class="node-bkg node-no-border" id="node-10"/><line y2="37.3078125" x2="161.0703125" y1="37.3078125" x1="0" class="node-line-0"/></g><g transform="translate(80.53515625, 5)" text-anchor="middle" dominant-baseline="middle" alignment-baseline="middle" dy="1em"><g><rect class="background"/><text y="-10.1"><tspan dy="1.1em" y="-0.1em" x="0" class="text-outer-tspan"><tspan font-weight="normal" class="text-inner-tspan" font-style="normal">Pipelined</tspan><tspan font-weight="normal" class="text-inner-tspan" font-style="normal"> Execution</tspan></tspan></text></g></g></g><g transform="translate(702.0142366909021, 191.98631507344373)" class="mindmap-node section-1"><g><path d="M0 32.3078125 v-27.307812499999997 q0,-5 5,-5 h68.1015625 q5,0 5,5 v32.3078125 H0 Z" class="node-bkg node-no-border" id="node-11"/><line y2="37.3078125" x2="78.1015625" y1="37.3078125" x1="0" class="node-line-1"/></g><g transform="translate(39.05078125, 5)" text-anchor="middle" dominant-baseline="middle" alignment-baseline="middle" dy="1em"><g><rect class="background"/><text y="-10.1"><tspan dy="1.1em" y="-0.1em" x="0" class="text-outer-tspan"><tspan font-weight="normal" class="text-inner-tspan" font-style="normal">Security</tspan></tspan></text></g></g></g><g transform="translate(793.2867693004631, 118.83337675476582)" class="mindmap-node section-1"><g><path d="M0 32.3078125 v-27.307812499999997 q0,-5 5,-5 h110.5234375 q5,0 5,5 v32.3078125 H0 Z" class="node-bkg node-no-border" id="node-12"/><line y2="37.3078125" x2="120.5234375" y1="37.3078125" x1="0" class="node-line-1"/></g><g transform="translate(60.26171875, 5)" text-anchor="middle" dominant-baseline="middle" alignment-baseline="middle" dy="1em"><g><rect class="background"/><text y="-10.1"><tspan dy="1.1em" y="-0.1em" x="0" class="text-outer-tspan"><tspan font-weight="normal" class="text-inner-tspan" font-style="normal">Post-Quantum</tspan></tspan></text></g></g></g><g transform="translate(970.8981400266543, 66.90434711644542)" class="mindmap-node section-1"><g><path d="M0 49.90781097412109 v-44.90781097412109 q0,-5 5,-5 h145.6875 q5,0 5,5 v49.90781097412109 H0 Z" class="node-bkg node-no-border" id="node-13"/><line y2="54.90781097412109" x2="155.6875" y1="54.90781097412109" x1="0" class="node-line-1"/></g><g transform="translate(77.84375, 5)" text-anchor="middle" dominant-baseline="middle" alignment-baseline="middle" dy="1em"><g><rect class="background"/><text y="-10.1"><tspan dy="1.1em" y="-0.1em" x="0" class="text-outer-tspan"><tspan font-weight="normal" class="text-inner-tspan" font-style="normal">Quantum-Resistant</tspan></tspan><tspan dy="1.1em" y="1em" x="0" class="text-outer-tspan"><tspan font-weight="normal" class="text-inner-tspan" font-style="normal">Signatures</tspan></tspan></text></g></g></g><g transform="translate(759.7063870531678, 26.77273410011503)" class="mindmap-node section-1"><g><path d="M0 32.3078125 v-27.307812499999997 q0,-5 5,-5 h208.40625 q5,0 5,5 v32.3078125 H0 Z" class="node-bkg node-no-border" id="node-14"/><line y2="37.3078125" x2="218.40625" y1="37.3078125" x1="0" class="node-line-1"/></g><g transform="translate(109.203125, 5)" text-anchor="middle" dominant-baseline="middle" alignment-baseline="middle" dy="1em"><g><rect class="background"/><text y="-10.1"><tspan dy="1.1em" y="-0.1em" x="0" class="text-outer-tspan"><tspan font-weight="normal" class="text-inner-tspan" font-style="normal">Lattice-Based</tspan><tspan font-weight="normal" class="text-inner-tspan" font-style="normal"> Cryptography</tspan></tspan></text></g></g></g><g transform="translate(606.018982591943, 101.61013565239261)" class="mindmap-node section-1"><g><path d="M0 32.3078125 v-27.307812499999997 q0,-5 5,-5 h147.34375 q5,0 5,5 v32.3078125 H0 Z" class="node-bkg node-no-border" id="node-15"/><line y2="37.3078125" x2="157.34375" y1="37.3078125" x1="0" class="node-line-1"/></g><g transform="translate(78.671875, 5)" text-anchor="middle" dominant-baseline="middle" alignment-baseline="middle" dy="1em"><g><rect class="background"/><text y="-10.1"><tspan dy="1.1em" y="-0.1em" x="0" class="text-outer-tspan"><tspan font-weight="normal" class="text-inner-tspan" font-style="normal">Formal</tspan><tspan font-weight="normal" class="text-inner-tspan" font-style="normal"> Verification</tspan></tspan></text></g></g></g><g transform="translate(556.669786984592, 15)" class="mindmap-node section-1"><g><path d="M0 32.3078125 v-27.307812499999997 q0,-5 5,-5 h155.984375 q5,0 5,5 v32.3078125 H0 Z" class="node-bkg node-no-border" id="node-16"/><line y2="37.3078125" x2="165.984375" y1="37.3078125" x1="0" class="node-line-1"/></g><g transform="translate(82.9921875, 5)" text-anchor="middle" dominant-baseline="middle" alignment-baseline="middle" dy="1em"><g><rect class="background"/><text y="-10.1"><tspan dy="1.1em" y="-0.1em" x="0" class="text-outer-tspan"><tspan font-weight="normal" class="text-inner-tspan" font-style="normal">Mathematical</tspan><tspan font-weight="normal" class="text-inner-tspan" font-style="normal"> Proofs</tspan></tspan></text></g></g></g><g transform="translate(517.2998896018072, 165.37643786692558)" class="mindmap-node section-1"><g><path d="M0 32.3078125 v-27.307812499999997 q0,-5 5,-5 h143.4921875 q5,0 5,5 v32.3078125 H0 Z" class="node-bkg node-no-border" id="node-17"/><line y2="37.3078125" x2="153.4921875" y1="37.3078125" x1="0" class="node-line-1"/></g><g transform="translate(76.74609375, 5)" text-anchor="middle" dominant-baseline="middle" alignment-baseline="middle" dy="1em"><g><rect class="background"/><text y="-10.1"><tspan dy="1.1em" y="-0.1em" x="0" class="text-outer-tspan"><tspan font-weight="normal" class="text-inner-tspan" font-style="normal">Automated</tspan><tspan font-weight="normal" class="text-inner-tspan" font-style="normal"> Testing</tspan></tspan></text></g></g></g><g transform="translate(843.4337913292101, 183.37519515919473)" class="mindmap-node section-1"><g><path d="M0 32.3078125 v-27.307812499999997 q0,-5 5,-5 h124.9765625 q5,0 5,5 v32.3078125 H0 Z" class="node-bkg node-no-border" id="node-18"/><line y2="37.3078125" x2="134.9765625" y1="37.3078125" x1="0" class="node-line-1"/></g><g transform="translate(67.48828125, 5)" text-anchor="middle" dominant-baseline="middle" alignment-baseline="middle" dy="1em"><g><rect class="background"/><text y="-10.1"><tspan dy="1.1em" y="-0.1em" x="0" class="text-outer-tspan"><tspan font-weight="normal" class="text-inner-tspan" font-style="normal">Attack</tspan><tspan font-weight="normal" class="text-inner-tspan" font-style="normal"> Modeling</tspan></tspan></text></g></g></g><g transform="translate(1033.7862947675903, 158.68269336103344)" class="mindmap-node section-1"><g><path d="M0 32.3078125 v-27.307812499999997 q0,-5 5,-5 h162.078125 q5,0 5,5 v32.3078125 H0 Z" class="node-bkg node-no-border" id="node-19"/><line y2="37.3078125" x2="172.078125" y1="37.3078125" x1="0" class="node-line-1"/></g><g transform="translate(86.0390625, 5)" text-anchor="middle" dominant-baseline="middle" alignment-baseline="middle" dy="1em"><g><rect class="background"/><text y="-10.1"><tspan dy="1.1em" y="-0.1em" x="0" class="text-outer-tspan"><tspan font-weight="normal" class="text-inner-tspan" font-style="normal">Adversarial</tspan><tspan font-weight="normal" class="text-inner-tspan" font-style="normal"> Scenarios</tspan></tspan></text></g></g></g><g transform="translate(764.3672275643477, 253.56349941622236)" class="mindmap-node section-1"><g><path d="M0 32.3078125 v-27.307812499999997 q0,-5 5,-5 h138.8203125 q5,0 5,5 v32.3078125 H0 Z" class="node-bkg node-no-border" id="node-20"/><line y2="37.3078125" x2="148.8203125" y1="37.3078125" x1="0" class="node-line-1"/></g><g transform="translate(74.41015625, 5)" text-anchor="middle" dominant-baseline="middle" alignment-baseline="middle" dy="1em"><g><rect class="background"/><text y="-10.1"><tspan dy="1.1em" y="-0.1em" x="0" class="text-outer-tspan"><tspan font-weight="normal" class="text-inner-tspan" font-style="normal">Economic</tspan><tspan font-weight="normal" class="text-inner-tspan" font-style="normal"> Analysis</tspan></tspan></text></g></g></g><g transform="translate(772.2172672182922, 338.22216562959716)" class="mindmap-node section-2"><g><path d="M0 32.3078125 v-27.307812499999997 q0,-5 5,-5 h72.25 q5,0 5,5 v32.3078125 H0 Z" class="node-bkg node-no-border" id="node-21"/><line y2="37.3078125" x2="82.25" y1="37.3078125" x1="0" class="node-line-2"/></g><g transform="translate(41.125, 5)" text-anchor="middle" dominant-baseline="middle" alignment-baseline="middle" dy="1em"><g><rect class="background"/><text y="-10.1"><tspan dy="1.1em" y="-0.1em" x="0" class="text-outer-tspan"><tspan font-weight="normal" class="text-inner-tspan" font-style="normal">Usability</tspan></tspan></text></g></g></g><g transform="translate(796.8347927358651, 430.98287212523974)" class="mindmap-node section-2"><g><path d="M0 32.3078125 v-27.307812499999997 q0,-5 5,-5 h122.4609375 q5,0 5,5 v32.3078125 H0 Z" class="node-bkg node-no-border" id="node-22"/><line y2="37.3078125" x2="132.4609375" y1="37.3078125" x1="0" class="node-line-2"/></g><g transform="translate(66.23046875, 5)" text-anchor="middle" dominant-baseline="middle" alignment-baseline="middle" dy="1em"><g><rect class="background"/><text y="-10.1"><tspan dy="1.1em" y="-0.1em" x="0" class="text-outer-tspan"><tspan font-weight="normal" class="text-inner-tspan" font-style="normal">Developer</tspan><tspan font-weight="normal" class="text-inner-tspan" font-style="normal"> Tools</tspan></tspan></text></g></g></g><g transform="translate(861.5051971036158, 513.2453947192587)" class="mindmap-node section-2"><g><path d="M0 32.3078125 v-27.307812499999997 q0,-5 5,-5 h120.6953125 q5,0 5,5 v32.3078125 H0 Z" class="node-bkg node-no-border" id="node-23"/><line y2="37.3078125" x2="130.6953125" y1="37.3078125" x1="0" class="node-line-2"/></g><g transform="translate(65.34765625, 5)" text-anchor="middle" dominant-baseline="middle" alignment-baseline="middle" dy="1em"><g><rect class="background"/><text y="-10.1"><tspan dy="1.1em" y="-0.1em" x="0" class="text-outer-tspan"><tspan font-weight="normal" class="text-inner-tspan" font-style="normal">SDK</tspan><tspan font-weight="normal" class="text-inner-tspan" font-style="normal"> Integration</tspan></tspan></text></g></g></g><g transform="translate(594.5934151762825, 385.29845158465207)" class="mindmap-node section-2"><g><path d="M0 32.3078125 v-27.307812499999997 q0,-5 5,-5 h151.2890625 q5,0 5,5 v32.3078125 H0 Z" class="node-bkg node-no-border" id="node-24"/><line y2="37.3078125" x2="161.2890625" y1="37.3078125" x1="0" class="node-line-2"/></g><g transform="translate(80.64453125, 5)" text-anchor="middle" dominant-baseline="middle" alignment-baseline="middle" dy="1em"><g><rect class="background"/><text y="-10.1"><tspan dy="1.1em" y="-0.1em" x="0" class="text-outer-tspan"><tspan font-weight="normal" class="text-inner-tspan" font-style="normal">Testing</tspan><tspan font-weight="normal" class="text-inner-tspan" font-style="normal"> Frameworks</tspan></tspan></text></g></g></g><g transform="translate(924.8514430012295, 382.03370408731985)" class="mindmap-node section-2"><g><path d="M0 32.3078125 v-27.307812499999997 q0,-5 5,-5 h125.7421875 q5,0 5,5 v32.3078125 H0 Z" class="node-bkg node-no-border" id="node-25"/><line y2="37.3078125" x2="135.7421875" y1="37.3078125" x1="0" class="node-line-2"/></g><g transform="translate(67.87109375, 5)" text-anchor="middle" dominant-baseline="middle" alignment-baseline="middle" dy="1em"><g><rect class="background"/><text y="-10.1"><tspan dy="1.1em" y="-0.1em" x="0" class="text-outer-tspan"><tspan font-weight="normal" class="text-inner-tspan" font-style="normal">User</tspan><tspan font-weight="normal" class="text-inner-tspan" font-style="normal"> Experience</tspan></tspan></text></g></g></g><g transform="translate(988.4389878928318, 459.3814343104966)" class="mindmap-node section-2"><g><path d="M0 32.3078125 v-27.307812499999997 q0,-5 5,-5 h139.6328125 q5,0 5,5 v32.3078125 H0 Z" class="node-bkg node-no-border" id="node-26"/><line y2="37.3078125" x2="149.6328125" y1="37.3078125" x1="0" class="node-line-2"/></g><g transform="translate(74.81640625, 5)" text-anchor="middle" dominant-baseline="middle" alignment-baseline="middle" dy="1em"><g><rect class="background"/><text y="-10.1"><tspan dy="1.1em" y="-0.1em" x="0" class="text-outer-tspan"><tspan font-weight="normal" class="text-inner-tspan" font-style="normal">Wallet</tspan><tspan font-weight="normal" class="text-inner-tspan" font-style="normal"> Integration</tspan></tspan></text></g></g></g><g transform="translate(1119.282678972786, 408.2677630700513)" class="mindmap-node section-2"><g><path d="M0 32.3078125 v-27.307812499999997 q0,-5 5,-5 h139.734375 q5,0 5,5 v32.3078125 H0 Z" class="node-bkg node-no-border" id="node-27"/><line y2="37.3078125" x2="149.734375" y1="37.3078125" x1="0" class="node-line-2"/></g><g transform="translate(74.8671875, 5)" text-anchor="middle" dominant-baseline="middle" alignment-baseline="middle" dy="1em"><g><rect class="background"/><text y="-10.1"><tspan dy="1.1em" y="-0.1em" x="0" class="text-outer-tspan"><tspan font-weight="normal" class="text-inner-tspan" font-style="normal">Transaction</tspan><tspan font-weight="normal" class="text-inner-tspan" font-style="normal"> Speed</tspan></tspan></text></g></g></g><g transform="translate(919.0790595285893, 302.2883059829603)" class="mindmap-node section-2"><g><path d="M0 32.3078125 v-27.307812499999997 q0,-5 5,-5 h122.3828125 q5,0 5,5 v32.3078125 H0 Z" class="node-bkg node-no-border" id="node-28"/><line y2="37.3078125" x2="132.3828125" y1="37.3078125" x1="0" class="node-line-2"/></g><g transform="translate(66.19140625, 5)" text-anchor="middle" dominant-baseline="middle" alignment-baseline="middle" dy="1em"><g><rect class="background"/><text y="-10.1"><tspan dy="1.1em" y="-0.1em" x="0" class="text-outer-tspan"><tspan font-weight="normal" class="text-inner-tspan" font-style="normal">Integration</tspan><tspan font-weight="normal" class="text-inner-tspan" font-style="normal"> APIs</tspan></tspan></text></g></g></g><g transform="translate(1039.692977020903, 245.44100656612144)" class="mindmap-node section-2"><g><path d="M0 32.3078125 v-27.307812499999997 q0,-5 5,-5 h163.65625 q5,0 5,5 v32.3078125 H0 Z" class="node-bkg node-no-border" id="node-29"/><line y2="37.3078125" x2="173.65625" y1="37.3078125" x1="0" class="node-line-2"/></g><g transform="translate(86.828125, 5)" text-anchor="middle" dominant-baseline="middle" alignment-baseline="middle" dy="1em"><g><rect class="background"/><text y="-10.1"><tspan dy="1.1em" y="-0.1em" x="0" class="text-outer-tspan"><tspan font-weight="normal" class="text-inner-tspan" font-style="normal">Cross-Chain</tspan><tspan font-weight="normal" class="text-inner-tspan" font-style="normal"> Protocols</tspan></tspan></text></g></g></g><g transform="translate(1108.11557966486, 315.9056219577907)" class="mindmap-node section-2"><g><path d="M0 32.3078125 v-27.307812499999997 q0,-5 5,-5 h150.390625 q5,0 5,5 v32.3078125 H0 Z" class="node-bkg node-no-border" id="node-30"/><line y2="37.3078125" x2="160.390625" y1="37.3078125" x1="0" class="node-line-2"/></g><g transform="translate(80.1953125, 5)" text-anchor="middle" dominant-baseline="middle" alignment-baseline="middle" dy="1em"><g><rect class="background"/><text y="-10.1"><tspan dy="1.1em" y="-0.1em" x="0" class="text-outer-tspan"><tspan font-weight="normal" class="text-inner-tspan" font-style="normal">Standard</tspan><tspan font-weight="normal" class="text-inner-tspan" font-style="normal"> Interfaces</tspan></tspan></text></g></g></g><g transform="translate(434.4257172070303, 359.48721016803506)" class="mindmap-node section-3"><g><path d="M0 32.3078125 v-27.307812499999997 q0,-5 5,-5 h122.328125 q5,0 5,5 v32.3078125 H0 Z" class="node-bkg node-no-border" id="node-31"/><line y2="37.3078125" x2="132.328125" y1="37.3078125" x1="0" class="node-line-3"/></g><g transform="translate(66.1640625, 5)" text-anchor="middle" dominant-baseline="middle" alignment-baseline="middle" dy="1em"><g><rect class="background"/><text y="-10.1"><tspan dy="1.1em" y="-0.1em" x="0" class="text-outer-tspan"><tspan font-weight="normal" class="text-inner-tspan" font-style="normal">Interoperability</tspan></tspan></text></g></g></g><g transform="translate(361.805204174775, 437.3507801930434)" class="mindmap-node section-3"><g><path d="M0 32.3078125 v-27.307812499999997 q0,-5 5,-5 h93.2265625 q5,0 5,5 v32.3078125 H0 Z" class="node-bkg node-no-border" id="node-32"/><line y2="37.3078125" x2="103.2265625" y1="37.3078125" x1="0" class="node-line-3"/></g><g transform="translate(51.61328125, 5)" text-anchor="middle" dominant-baseline="middle" alignment-baseline="middle" dy="1em"><g><rect class="background"/><text y="-10.1"><tspan dy="1.1em" y="-0.1em" x="0" class="text-outer-tspan"><tspan font-weight="normal" class="text-inner-tspan" font-style="normal">Cross-Chain</tspan></tspan></text></g></g></g><g transform="translate(334.1339026085062, 529.2215018898049)" class="mindmap-node section-3"><g><path d="M0 32.3078125 v-27.307812499999997 q0,-5 5,-5 h118.4296875 q5,0 5,5 v32.3078125 H0 Z" class="node-bkg node-no-border" id="node-33"/><line y2="37.3078125" x2="128.4296875" y1="37.3078125" x1="0" class="node-line-3"/></g><g transform="translate(64.21484375, 5)" text-anchor="middle" dominant-baseline="middle" alignment-baseline="middle" dy="1em"><g><rect class="background"/><text y="-10.1"><tspan dy="1.1em" y="-0.1em" x="0" class="text-outer-tspan"><tspan font-weight="normal" class="text-inner-tspan" font-style="normal">Bridge</tspan><tspan font-weight="normal" class="text-inner-tspan" font-style="normal"> Security</tspan></tspan></text></g></g></g><g transform="translate(186.310227010041, 483.45449552395087)" class="mindmap-node section-3"><g><path d="M0 32.3078125 v-27.307812499999997 q0,-5 5,-5 h110.2265625 q5,0 5,5 v32.3078125 H0 Z" class="node-bkg node-no-border" id="node-34"/><line y2="37.3078125" x2="120.2265625" y1="37.3078125" x1="0" class="node-line-3"/></g><g transform="translate(60.11328125, 5)" text-anchor="middle" dominant-baseline="middle" alignment-baseline="middle" dy="1em"><g><rect class="background"/><text y="-10.1"><tspan dy="1.1em" y="-0.1em" x="0" class="text-outer-tspan"><tspan font-weight="normal" class="text-inner-tspan" font-style="normal">Asset</tspan><tspan font-weight="normal" class="text-inner-tspan" font-style="normal"> Transfer</tspan></tspan></text></g></g></g><g transform="translate(500.73199442527186, 446.4502113714466)" class="mindmap-node section-3"><g><path d="M0 32.3078125 v-27.307812499999997 q0,-5 5,-5 h110.7265625 q5,0 5,5 v32.3078125 H0 Z" class="node-bkg node-no-border" id="node-35"/><line y2="37.3078125" x2="120.7265625" y1="37.3078125" x1="0" class="node-line-3"/></g><g transform="translate(60.36328125, 5)" text-anchor="middle" dominant-baseline="middle" alignment-baseline="middle" dy="1em"><g><rect class="background"/><text y="-10.1"><tspan dy="1.1em" y="-0.1em" x="0" class="text-outer-tspan"><tspan font-weight="normal" class="text-inner-tspan" font-style="normal">Multi-Protocol</tspan></tspan></text></g></g></g><g transform="translate(494.9966128390257, 539.4319930496887)" class="mindmap-node section-3"><g><path d="M0 32.3078125 v-27.307812499999997 q0,-5 5,-5 h168.4296875 q5,0 5,5 v32.3078125 H0 Z" class="node-bkg node-no-border" id="node-36"/><line y2="37.3078125" x2="178.4296875" y1="37.3078125" x1="0" class="node-line-3"/></g><g transform="translate(89.21484375, 5)" text-anchor="middle" dominant-baseline="middle" alignment-baseline="middle" dy="1em"><g><rect class="background"/><text y="-10.1"><tspan dy="1.1em" y="-0.1em" x="0" class="text-outer-tspan"><tspan font-weight="normal" class="text-inner-tspan" font-style="normal">Consensus</tspan><tspan font-weight="normal" class="text-inner-tspan" font-style="normal"> Abstraction</tspan></tspan></text></g></g></g><g transform="translate(665.5252422336824, 492.88128228080325)" class="mindmap-node section-3"><g><path d="M0 32.3078125 v-27.307812499999997 q0,-5 5,-5 h151 q5,0 5,5 v32.3078125 H0 Z" class="node-bkg node-no-border" id="node-37"/><line y2="37.3078125" x2="161" y1="37.3078125" x1="0" class="node-line-3"/></g><g transform="translate(80.5, 5)" text-anchor="middle" dominant-baseline="middle" alignment-baseline="middle" dy="1em"><g><rect class="background"/><text y="-10.1"><tspan dy="1.1em" y="-0.1em" x="0" class="text-outer-tspan"><tspan font-weight="normal" class="text-inner-tspan" font-style="normal">Universal</tspan><tspan font-weight="normal" class="text-inner-tspan" font-style="normal"> Standards</tspan></tspan></text></g></g></g><g transform="translate(235.07820603368498, 384.1702313144423)" class="mindmap-node section-3"><g><path d="M0 32.3078125 v-27.307812499999997 q0,-5 5,-5 h118.4296875 q5,0 5,5 v32.3078125 H0 Z" class="node-bkg node-no-border" id="node-38"/><line y2="37.3078125" x2="128.4296875" y1="37.3078125" x1="0" class="node-line-3"/></g><g transform="translate(64.21484375, 5)" text-anchor="middle" dominant-baseline="middle" alignment-baseline="middle" dy="1em"><g><rect class="background"/><text y="-10.1"><tspan dy="1.1em" y="-0.1em" x="0" class="text-outer-tspan"><tspan font-weight="normal" class="text-inner-tspan" font-style="normal">Bridge</tspan><tspan font-weight="normal" class="text-inner-tspan" font-style="normal"> Security</tspan></tspan></text></g></g></g><g transform="translate(58.44377263867, 347.4097970627033)" class="mindmap-node section-3"><g><path d="M0 32.3078125 v-27.307812499999997 q0,-5 5,-5 h108.359375 q5,0 5,5 v32.3078125 H0 Z" class="node-bkg node-no-border" id="node-39"/><line y2="37.3078125" x2="118.359375" y1="37.3078125" x1="0" class="node-line-3"/></g><g transform="translate(59.1796875, 5)" text-anchor="middle" dominant-baseline="middle" alignment-baseline="middle" dy="1em"><g><rect class="background"/><text y="-10.1"><tspan dy="1.1em" y="-0.1em" x="0" class="text-outer-tspan"><tspan font-weight="normal" class="text-inner-tspan" font-style="normal">Validator</tspan><tspan font-weight="normal" class="text-inner-tspan" font-style="normal"> Sets</tspan></tspan></text></g></g></g><g transform="translate(15, 433.8281278061023)" class="mindmap-node section-3"><g><path d="M0 32.3078125 v-27.307812499999997 q0,-5 5,-5 h164.6015625 q5,0 5,5 v32.3078125 H0 Z" class="node-bkg node-no-border" id="node-40"/><line y2="37.3078125" x2="174.6015625" y1="37.3078125" x1="0" class="node-line-3"/></g><g transform="translate(87.30078125, 5)" text-anchor="middle" dominant-baseline="middle" alignment-baseline="middle" dy="1em"><g><rect class="background"/><text y="-10.1"><tspan dy="1.1em" y="-0.1em" x="0" class="text-outer-tspan"><tspan font-weight="normal" class="text-inner-tspan" font-style="normal">Economic</tspan><tspan font-weight="normal" class="text-inner-tspan" font-style="normal"> Guarantees</tspan></tspan></text></g></g></g></g></svg>