<svg aria-roledescription="flowchart-v2" role="graphics-document document" viewBox="-8 -8 864.3984375 300" style="max-width: 864.398px; background-color: transparent;" xmlns:xlink="http://www.w3.org/1999/xlink" xmlns="http://www.w3.org/2000/svg" width="100%" id="my-svg"><style>#my-svg{font-family:"trebuchet ms",verdana,arial,sans-serif;font-size:16px;fill:#ccc;}#my-svg .error-icon{fill:#a44141;}#my-svg .error-text{fill:#ddd;stroke:#ddd;}#my-svg .edge-thickness-normal{stroke-width:2px;}#my-svg .edge-thickness-thick{stroke-width:3.5px;}#my-svg .edge-pattern-solid{stroke-dasharray:0;}#my-svg .edge-pattern-dashed{stroke-dasharray:3;}#my-svg .edge-pattern-dotted{stroke-dasharray:2;}#my-svg .marker{fill:lightgrey;stroke:lightgrey;}#my-svg .marker.cross{stroke:lightgrey;}#my-svg svg{font-family:"trebuchet ms",verdana,arial,sans-serif;font-size:16px;}#my-svg .label{font-family:"trebuchet ms",verdana,arial,sans-serif;color:#ccc;}#my-svg .cluster-label text{fill:#F9FFFE;}#my-svg .cluster-label span,#my-svg p{color:#F9FFFE;}#my-svg .label text,#my-svg span,#my-svg p{fill:#ccc;color:#ccc;}#my-svg .node rect,#my-svg .node circle,#my-svg .node ellipse,#my-svg .node polygon,#my-svg .node path{fill:#1f2020;stroke:#81B1DB;stroke-width:1px;}#my-svg .flowchart-label text{text-anchor:middle;}#my-svg .node .katex path{fill:#000;stroke:#000;stroke-width:1px;}#my-svg .node .label{text-align:center;}#my-svg .node.clickable{cursor:pointer;}#my-svg .arrowheadPath{fill:lightgrey;}#my-svg .edgePath .path{stroke:lightgrey;stroke-width:2.0px;}#my-svg .flowchart-link{stroke:lightgrey;fill:none;}#my-svg .edgeLabel{background-color:hsl(0, 0%, 34.4117647059%);text-align:center;}#my-svg .edgeLabel rect{opacity:0.5;background-color:hsl(0, 0%, 34.4117647059%);fill:hsl(0, 0%, 34.4117647059%);}#my-svg .labelBkg{background-color:rgba(87.75, 87.75, 87.75, 0.5);}#my-svg .cluster rect{fill:hsl(180, 1.5873015873%, 28.3529411765%);stroke:rgba(255, 255, 255, 0.25);stroke-width:1px;}#my-svg .cluster text{fill:#F9FFFE;}#my-svg .cluster span,#my-svg p{color:#F9FFFE;}#my-svg div.mermaidTooltip{position:absolute;text-align:center;max-width:200px;padding:2px;font-family:"trebuchet ms",verdana,arial,sans-serif;font-size:12px;background:hsl(20, 1.5873015873%, 12.3529411765%);border:1px solid rgba(255, 255, 255, 0.25);border-radius:2px;pointer-events:none;z-index:100;}#my-svg .flowchartTitleText{text-anchor:middle;font-size:18px;fill:#ccc;}#my-svg :root{--mermaid-font-family:"trebuchet ms",verdana,arial,sans-serif;}</style><g><marker orient="auto" markerHeight="12" markerWidth="12" markerUnits="userSpaceOnUse" refY="5" refX="6" viewBox="0 0 10 10" class="marker flowchart" id="my-svg_flowchart-pointEnd"><path style="stroke-width: 1; stroke-dasharray: 1, 0;" class="arrowMarkerPath" d="M 0 0 L 10 5 L 0 10 z"/></marker><marker orient="auto" markerHeight="12" markerWidth="12" markerUnits="userSpaceOnUse" refY="5" refX="4.5" viewBox="0 0 10 10" class="marker flowchart" id="my-svg_flowchart-pointStart"><path style="stroke-width: 1; stroke-dasharray: 1, 0;" class="arrowMarkerPath" d="M 0 5 L 10 10 L 10 0 z"/></marker><marker orient="auto" markerHeight="11" markerWidth="11" markerUnits="userSpaceOnUse" refY="5" refX="11" viewBox="0 0 10 10" class="marker flowchart" id="my-svg_flowchart-circleEnd"><circle style="stroke-width: 1; stroke-dasharray: 1, 0;" class="arrowMarkerPath" r="5" cy="5" cx="5"/></marker><marker orient="auto" markerHeight="11" markerWidth="11" markerUnits="userSpaceOnUse" refY="5" refX="-1" viewBox="0 0 10 10" class="marker flowchart" id="my-svg_flowchart-circleStart"><circle style="stroke-width: 1; stroke-dasharray: 1, 0;" class="arrowMarkerPath" r="5" cy="5" cx="5"/></marker><marker orient="auto" markerHeight="11" markerWidth="11" markerUnits="userSpaceOnUse" refY="5.2" refX="12" viewBox="0 0 11 11" class="marker cross flowchart" id="my-svg_flowchart-crossEnd"><path style="stroke-width: 2; stroke-dasharray: 1, 0;" class="arrowMarkerPath" d="M 1,1 l 9,9 M 10,1 l -9,9"/></marker><marker orient="auto" markerHeight="11" markerWidth="11" markerUnits="userSpaceOnUse" refY="5.2" refX="-1" viewBox="0 0 11 11" class="marker cross flowchart" id="my-svg_flowchart-crossStart"><path style="stroke-width: 2; stroke-dasharray: 1, 0;" class="arrowMarkerPath" d="M 1,1 l 9,9 M 10,1 l -9,9"/></marker><g class="root"><g class="clusters"/><g class="edgePaths"><path marker-end="url(#my-svg_flowchart-pointEnd)" style="fill:none;" class="edge-thickness-normal edge-pattern-solid flowchart-link LS-A LE-B" id="L-A-B-0" d="M338.455,32.799L315.411,37.082C292.367,41.366,246.279,49.933,223.235,57.5C200.191,65.067,200.191,71.633,200.191,74.917L200.191,78.2"/><path marker-end="url(#my-svg_flowchart-pointEnd)" style="fill:none;" class="edge-thickness-normal edge-pattern-solid flowchart-link LS-A LE-C" id="L-A-C-0" d="M511.127,32.799L534.171,37.082C557.215,41.366,603.303,49.933,626.347,57.5C649.391,65.067,649.391,71.633,649.391,74.917L649.391,78.2"/><path marker-end="url(#my-svg_flowchart-pointEnd)" style="fill:none;" class="edge-thickness-normal edge-pattern-solid flowchart-link LS-B LE-D" id="L-B-D-0" d="M170.367,108.508L150.206,114.09C130.046,119.672,89.724,130.836,69.563,139.701C49.402,148.567,49.402,155.133,49.402,158.417L49.402,161.7"/><path marker-end="url(#my-svg_flowchart-pointEnd)" style="fill:none;" class="edge-thickness-normal edge-pattern-solid flowchart-link LS-B LE-E" id="L-B-E-0" d="M200.191,117L200.191,121.167C200.191,125.333,200.191,133.667,200.191,141.117C200.191,148.567,200.191,155.133,200.191,158.417L200.191,161.7"/><path marker-end="url(#my-svg_flowchart-pointEnd)" style="fill:none;" class="edge-thickness-normal edge-pattern-solid flowchart-link LS-B LE-F" id="L-B-F-0" d="M230.016,108.526L250.122,114.105C270.228,119.684,310.44,130.842,330.546,139.704C350.652,148.567,350.652,155.133,350.652,158.417L350.652,161.7"/><path marker-end="url(#my-svg_flowchart-pointEnd)" style="fill:none;" class="edge-thickness-normal edge-pattern-solid flowchart-link LS-C LE-G" id="L-C-G-0" d="M589.035,117L574.022,121.167C559.008,125.333,528.981,133.667,513.967,141.117C498.953,148.567,498.953,155.133,498.953,158.417L498.953,161.7"/><path marker-end="url(#my-svg_flowchart-pointEnd)" style="fill:none;" class="edge-thickness-normal edge-pattern-solid flowchart-link LS-C LE-H" id="L-C-H-0" d="M649.391,117L649.391,121.167C649.391,125.333,649.391,133.667,649.391,141.117C649.391,148.567,649.391,155.133,649.391,158.417L649.391,161.7"/><path marker-end="url(#my-svg_flowchart-pointEnd)" style="fill:none;" class="edge-thickness-normal edge-pattern-solid flowchart-link LS-C LE-I" id="L-C-I-0" d="M709.614,117L724.595,121.167C739.576,125.333,769.538,133.667,784.519,141.117C799.5,148.567,799.5,155.133,799.5,158.417L799.5,161.7"/><path marker-end="url(#my-svg_flowchart-pointEnd)" style="fill:none;" class="edge-thickness-normal edge-pattern-solid flowchart-link LS-D LE-J" id="L-D-J-0" d="M49.402,200.5L49.402,204.667C49.402,208.833,49.402,217.167,63.6,225.264C77.797,233.362,106.192,241.224,120.39,245.155L134.587,249.086"/><path marker-end="url(#my-svg_flowchart-pointEnd)" style="fill:none;" class="edge-thickness-normal edge-pattern-solid flowchart-link LS-E LE-J" id="L-E-J-0" d="M200.191,200.5L200.191,204.667C200.191,208.833,200.191,217.167,200.191,224.617C200.191,232.067,200.191,238.633,200.191,241.917L200.191,245.2"/><path marker-end="url(#my-svg_flowchart-pointEnd)" style="fill:none;" class="edge-thickness-normal edge-pattern-solid flowchart-link LS-F LE-J" id="L-F-J-0" d="M350.652,200.5L350.652,204.667C350.652,208.833,350.652,217.167,336.487,225.264C322.323,233.361,293.993,241.222,279.828,245.152L265.663,249.083"/><path marker-end="url(#my-svg_flowchart-pointEnd)" style="fill:none;" class="edge-thickness-normal edge-pattern-solid flowchart-link LS-G LE-K" id="L-G-K-0" d="M498.953,200.5L498.953,204.667C498.953,208.833,498.953,217.167,513.116,225.264C527.278,233.361,555.603,241.222,569.766,245.152L583.928,249.083"/><path marker-end="url(#my-svg_flowchart-pointEnd)" style="fill:none;" class="edge-thickness-normal edge-pattern-solid flowchart-link LS-H LE-K" id="L-H-K-0" d="M649.391,200.5L649.391,204.667C649.391,208.833,649.391,217.167,649.391,224.617C649.391,232.067,649.391,238.633,649.391,241.917L649.391,245.2"/><path marker-end="url(#my-svg_flowchart-pointEnd)" style="fill:none;" class="edge-thickness-normal edge-pattern-solid flowchart-link LS-I LE-K" id="L-I-K-0" d="M799.5,200.5L799.5,204.667C799.5,208.833,799.5,217.167,785.37,225.263C771.24,233.36,742.98,241.22,728.85,245.15L714.72,249.08"/></g><g class="edgeLabels"><g class="edgeLabel"><g transform="translate(0, 0)" class="label"><foreignObject height="0" width="0"><div style="display: inline-block; white-space: nowrap;" xmlns="http://www.w3.org/1999/xhtml"><span class="edgeLabel"></span></div></foreignObject></g></g><g class="edgeLabel"><g transform="translate(0, 0)" class="label"><foreignObject height="0" width="0"><div style="display: inline-block; white-space: nowrap;" xmlns="http://www.w3.org/1999/xhtml"><span class="edgeLabel"></span></div></foreignObject></g></g><g class="edgeLabel"><g transform="translate(0, 0)" class="label"><foreignObject height="0" width="0"><div style="display: inline-block; white-space: nowrap;" xmlns="http://www.w3.org/1999/xhtml"><span class="edgeLabel"></span></div></foreignObject></g></g><g class="edgeLabel"><g transform="translate(0, 0)" class="label"><foreignObject height="0" width="0"><div style="display: inline-block; white-space: nowrap;" xmlns="http://www.w3.org/1999/xhtml"><span class="edgeLabel"></span></div></foreignObject></g></g><g class="edgeLabel"><g transform="translate(0, 0)" class="label"><foreignObject height="0" width="0"><div style="display: inline-block; white-space: nowrap;" xmlns="http://www.w3.org/1999/xhtml"><span class="edgeLabel"></span></div></foreignObject></g></g><g class="edgeLabel"><g transform="translate(0, 0)" class="label"><foreignObject height="0" width="0"><div style="display: inline-block; white-space: nowrap;" xmlns="http://www.w3.org/1999/xhtml"><span class="edgeLabel"></span></div></foreignObject></g></g><g class="edgeLabel"><g transform="translate(0, 0)" class="label"><foreignObject height="0" width="0"><div style="display: inline-block; white-space: nowrap;" xmlns="http://www.w3.org/1999/xhtml"><span class="edgeLabel"></span></div></foreignObject></g></g><g class="edgeLabel"><g transform="translate(0, 0)" class="label"><foreignObject height="0" width="0"><div style="display: inline-block; white-space: nowrap;" xmlns="http://www.w3.org/1999/xhtml"><span class="edgeLabel"></span></div></foreignObject></g></g><g class="edgeLabel"><g transform="translate(0, 0)" class="label"><foreignObject height="0" width="0"><div style="display: inline-block; white-space: nowrap;" xmlns="http://www.w3.org/1999/xhtml"><span class="edgeLabel"></span></div></foreignObject></g></g><g class="edgeLabel"><g transform="translate(0, 0)" class="label"><foreignObject height="0" width="0"><div style="display: inline-block; white-space: nowrap;" xmlns="http://www.w3.org/1999/xhtml"><span class="edgeLabel"></span></div></foreignObject></g></g><g class="edgeLabel"><g transform="translate(0, 0)" class="label"><foreignObject height="0" width="0"><div style="display: inline-block; white-space: nowrap;" xmlns="http://www.w3.org/1999/xhtml"><span class="edgeLabel"></span></div></foreignObject></g></g><g class="edgeLabel"><g transform="translate(0, 0)" class="label"><foreignObject height="0" width="0"><div style="display: inline-block; white-space: nowrap;" xmlns="http://www.w3.org/1999/xhtml"><span class="edgeLabel"></span></div></foreignObject></g></g><g class="edgeLabel"><g transform="translate(0, 0)" class="label"><foreignObject height="0" width="0"><div style="display: inline-block; white-space: nowrap;" xmlns="http://www.w3.org/1999/xhtml"><span class="edgeLabel"></span></div></foreignObject></g></g><g class="edgeLabel"><g transform="translate(0, 0)" class="label"><foreignObject height="0" width="0"><div style="display: inline-block; white-space: nowrap;" xmlns="http://www.w3.org/1999/xhtml"><span class="edgeLabel"></span></div></foreignObject></g></g></g><g class="nodes"><g transform="translate(424.791015625, 16.75)" data-id="A" data-node="true" id="flowchart-A-0" class="node default default flowchart-label"><rect height="33.5" width="172.671875" y="-16.75" x="-86.3359375" ry="0" rx="0" style="" class="basic label-container"/><g transform="translate(-78.8359375, -9.25)" style="" class="label"><rect/><foreignObject height="18.5" width="157.671875"><div style="display: inline-block; white-space: nowrap;" xmlns="http://www.w3.org/1999/xhtml"><span class="nodeLabel">Data Structure Choice</span></div></foreignObject></g></g><g transform="translate(200.19140625, 100.25)" data-id="B" data-node="true" id="flowchart-B-1" class="node default default flowchart-label"><rect height="33.5" width="59.6484375" y="-16.75" x="-29.82421875" ry="0" rx="0" style="" class="basic label-container"/><g transform="translate(-22.32421875, -9.25)" style="" class="label"><rect/><foreignObject height="18.5" width="44.6484375"><div style="display: inline-block; white-space: nowrap;" xmlns="http://www.w3.org/1999/xhtml"><span class="nodeLabel">Arrays</span></div></foreignObject></g></g><g transform="translate(649.390625, 100.25)" data-id="C" data-node="true" id="flowchart-C-3" class="node default default flowchart-label"><rect height="33.5" width="126.1171875" y="-16.75" x="-63.05859375" ry="0" rx="0" style="" class="basic label-container"/><g transform="translate(-55.55859375, -9.25)" style="" class="label"><rect/><foreignObject height="18.5" width="111.1171875"><div style="display: inline-block; white-space: nowrap;" xmlns="http://www.w3.org/1999/xhtml"><span class="nodeLabel">Objects &amp; Maps</span></div></foreignObject></g></g><g transform="translate(49.40234375, 183.75)" data-id="D" data-node="true" id="flowchart-D-5" class="node default default flowchart-label"><rect height="33.5" width="98.8046875" y="-16.75" x="-49.40234375" ry="0" rx="0" style="" class="basic label-container"/><g transform="translate(-41.90234375, -9.25)" style="" class="label"><rect/><foreignObject height="18.5" width="83.8046875"><div style="display: inline-block; white-space: nowrap;" xmlns="http://www.w3.org/1999/xhtml"><span class="nodeLabel">O(n) Search</span></div></foreignObject></g></g><g transform="translate(200.19140625, 183.75)" data-id="E" data-node="true" id="flowchart-E-7" class="node default default flowchart-label"><rect height="33.5" width="102.7734375" y="-16.75" x="-51.38671875" ry="0" rx="0" style="" class="basic label-container"/><g transform="translate(-43.88671875, -9.25)" style="" class="label"><rect/><foreignObject height="18.5" width="87.7734375"><div style="display: inline-block; white-space: nowrap;" xmlns="http://www.w3.org/1999/xhtml"><span class="nodeLabel">O(n) Update</span></div></foreignObject></g></g><g transform="translate(350.65234375, 183.75)" data-id="F" data-node="true" id="flowchart-F-9" class="node default default flowchart-label"><rect height="33.5" width="98.1484375" y="-16.75" x="-49.07421875" ry="0" rx="0" style="" class="basic label-container"/><g transform="translate(-41.57421875, -9.25)" style="" class="label"><rect/><foreignObject height="18.5" width="83.1484375"><div style="display: inline-block; white-space: nowrap;" xmlns="http://www.w3.org/1999/xhtml"><span class="nodeLabel">O(n) Delete</span></div></foreignObject></g></g><g transform="translate(498.953125, 183.75)" data-id="G" data-node="true" id="flowchart-G-11" class="node default default flowchart-label"><rect height="33.5" width="98.453125" y="-16.75" x="-49.2265625" ry="0" rx="0" style="" class="basic label-container"/><g transform="translate(-41.7265625, -9.25)" style="" class="label"><rect/><foreignObject height="18.5" width="83.453125"><div style="display: inline-block; white-space: nowrap;" xmlns="http://www.w3.org/1999/xhtml"><span class="nodeLabel">O(1) Search</span></div></foreignObject></g></g><g transform="translate(649.390625, 183.75)" data-id="H" data-node="true" id="flowchart-H-13" class="node default default flowchart-label"><rect height="33.5" width="102.421875" y="-16.75" x="-51.2109375" ry="0" rx="0" style="" class="basic label-container"/><g transform="translate(-43.7109375, -9.25)" style="" class="label"><rect/><foreignObject height="18.5" width="87.421875"><div style="display: inline-block; white-space: nowrap;" xmlns="http://www.w3.org/1999/xhtml"><span class="nodeLabel">O(1) Update</span></div></foreignObject></g></g><g transform="translate(799.5, 183.75)" data-id="I" data-node="true" id="flowchart-I-15" class="node default default flowchart-label"><rect height="33.5" width="97.796875" y="-16.75" x="-48.8984375" ry="0" rx="0" style="" class="basic label-container"/><g transform="translate(-41.3984375, -9.25)" style="" class="label"><rect/><foreignObject height="18.5" width="82.796875"><div style="display: inline-block; white-space: nowrap;" xmlns="http://www.w3.org/1999/xhtml"><span class="nodeLabel">O(1) Delete</span></div></foreignObject></g></g><g transform="translate(200.19140625, 267.25)" data-id="J" data-node="true" id="flowchart-J-17" class="node default default flowchart-label"><rect height="33.5" width="155.4921875" y="-16.75" x="-77.74609375" ry="0" rx="0" style="" class="basic label-container"/><g transform="translate(-70.24609375, -9.25)" style="" class="label"><rect/><foreignObject height="18.5" width="140.4921875"><div style="display: inline-block; white-space: nowrap;" xmlns="http://www.w3.org/1999/xhtml"><span class="nodeLabel">Linear Performance</span></div></foreignObject></g></g><g transform="translate(649.390625, 267.25)" data-id="K" data-node="true" id="flowchart-K-23" class="node default default flowchart-label"><rect height="33.5" width="173.9453125" y="-16.75" x="-86.97265625" ry="0" rx="0" style="" class="basic label-container"/><g transform="translate(-79.47265625, -9.25)" style="" class="label"><rect/><foreignObject height="18.5" width="158.9453125"><div style="display: inline-block; white-space: nowrap;" xmlns="http://www.w3.org/1999/xhtml"><span class="nodeLabel">Constant Performance</span></div></foreignObject></g></g></g></g></g></svg>