<svg aria-roledescription="xychart" role="graphics-document document" viewBox="0 0 700 500" style="max-width: 700px; background-color: transparent;" xmlns:xlink="http://www.w3.org/1999/xlink" xmlns="http://www.w3.org/2000/svg" width="100%" id="my-svg"><style>#my-svg{font-family:"trebuchet ms",verdana,arial,sans-serif;font-size:16px;fill:#333;}#my-svg .error-icon{fill:#552222;}#my-svg .error-text{fill:#552222;stroke:#552222;}#my-svg .edge-thickness-normal{stroke-width:2px;}#my-svg .edge-thickness-thick{stroke-width:3.5px;}#my-svg .edge-pattern-solid{stroke-dasharray:0;}#my-svg .edge-pattern-dashed{stroke-dasharray:3;}#my-svg .edge-pattern-dotted{stroke-dasharray:2;}#my-svg .marker{fill:#333333;stroke:#333333;}#my-svg .marker.cross{stroke:#333333;}#my-svg svg{font-family:"trebuchet ms",verdana,arial,sans-serif;font-size:16px;}#my-svg :root{--mermaid-font-family:"trebuchet ms",verdana,arial,sans-serif;}</style><g/><g class="main"><rect fill="white" class="background" height="500" width="700"/><g class="chart-title"><text transform="translate(350, 21.75) rotate(0)" text-anchor="middle" dominant-baseline="middle" font-size="20" fill="#131300" y="0" x="0">AI Automation ROI Progression</text></g><g class="plot"><g class="bar-plot-0"><rect stroke-width="0" stroke="#ECECFF" fill="#ECECFF" height="28.375000000000057" width="49.4" y="438.62499999999994" x="68.83125190734863"/><rect stroke-width="0" stroke="#ECECFF" fill="#ECECFF" height="48.75" width="49.4" y="418.25" x="151.7553587777274"/><rect stroke-width="0" stroke="#ECECFF" fill="#ECECFF" height="75.91666666666669" width="49.4" y="391.0833333333333" x="234.67946564810615"/><rect stroke-width="0" stroke="#ECECFF" fill="#ECECFF" height="116.66666666666663" width="49.4" y="350.33333333333337" x="317.60357251848495"/><rect stroke-width="0" stroke="#ECECFF" fill="#ECECFF" height="171" width="49.4" y="296" x="400.5276793888637"/><rect stroke-width="0" stroke="#ECECFF" fill="#ECECFF" height="225.33333333333331" width="49.4" y="241.66666666666669" x="483.45178625924245"/><rect stroke-width="0" stroke="#ECECFF" fill="#ECECFF" height="293.25" width="49.4" y="173.75" x="566.3758931296212"/><rect stroke-width="0" stroke="#ECECFF" fill="#ECECFF" height="388.33333333333337" width="49.4" y="78.66666666666666" x="649.3"/></g></g><g class="bottom-axis"><g class="axis-line"><path stroke-width="2" stroke="#131300" fill="none" d="M 67.53125190734863,468 L 700,468"/></g><g class="label"><text transform="translate(93.53125190734863, 479) rotate(0)" text-anchor="middle" dominant-baseline="text-before-edge" font-size="14" fill="#131300" y="0" x="0">Q1</text><text transform="translate(176.45535877772738, 479) rotate(0)" text-anchor="middle" dominant-baseline="text-before-edge" font-size="14" fill="#131300" y="0" x="0">Q2</text><text transform="translate(259.37946564810613, 479) rotate(0)" text-anchor="middle" dominant-baseline="text-before-edge" font-size="14" fill="#131300" y="0" x="0">Q3</text><text transform="translate(342.30357251848494, 479) rotate(0)" text-anchor="middle" dominant-baseline="text-before-edge" font-size="14" fill="#131300" y="0" x="0">Q4</text><text transform="translate(425.2276793888637, 479) rotate(0)" text-anchor="middle" dominant-baseline="text-before-edge" font-size="14" fill="#131300" y="0" x="0">Q5</text><text transform="translate(508.15178625924244, 479) rotate(0)" text-anchor="middle" dominant-baseline="text-before-edge" font-size="14" fill="#131300" y="0" x="0">Q6</text><text transform="translate(591.0758931296212, 479) rotate(0)" text-anchor="middle" dominant-baseline="text-before-edge" font-size="14" fill="#131300" y="0" x="0">Q7</text><text transform="translate(674, 479) rotate(0)" text-anchor="middle" dominant-baseline="text-before-edge" font-size="14" fill="#131300" y="0" x="0">Q8</text></g><g class="ticks"><path stroke-width="2" stroke="#131300" fill="none" d="M 93.53125190734863,469 L 93.53125190734863,474"/><path stroke-width="2" stroke="#131300" fill="none" d="M 176.45535877772738,469 L 176.45535877772738,474"/><path stroke-width="2" stroke="#131300" fill="none" d="M 259.37946564810613,469 L 259.37946564810613,474"/><path stroke-width="2" stroke="#131300" fill="none" d="M 342.30357251848494,469 L 342.30357251848494,474"/><path stroke-width="2" stroke="#131300" fill="none" d="M 425.2276793888637,469 L 425.2276793888637,474"/><path stroke-width="2" stroke="#131300" fill="none" d="M 508.15178625924244,469 L 508.15178625924244,474"/><path stroke-width="2" stroke="#131300" fill="none" d="M 591.0758931296212,469 L 591.0758931296212,474"/><path stroke-width="2" stroke="#131300" fill="none" d="M 674,469 L 674,474"/></g></g><g class="left-axis"><g class="axisl-line"><path stroke-width="2" stroke="#131300" fill="none" d="M 66.53125190734863,43.5 L 66.53125190734863,467"/></g><g class="label"><text transform="translate(55.53125190734863, 51.5) rotate(0)" text-anchor="end" dominant-baseline="middle" font-size="14" fill="#131300" y="0" x="0">300</text><text transform="translate(55.53125190734863, 78.66666666666666) rotate(0)" text-anchor="end" dominant-baseline="middle" font-size="14" fill="#131300" y="0" x="0">280</text><text transform="translate(55.53125190734863, 105.83333333333331) rotate(0)" text-anchor="end" dominant-baseline="middle" font-size="14" fill="#131300" y="0" x="0">260</text><text transform="translate(55.53125190734863, 133) rotate(0)" text-anchor="end" dominant-baseline="middle" font-size="14" fill="#131300" y="0" x="0">240</text><text transform="translate(55.53125190734863, 160.16666666666669) rotate(0)" text-anchor="end" dominant-baseline="middle" font-size="14" fill="#131300" y="0" x="0">220</text><text transform="translate(55.53125190734863, 187.33333333333337) rotate(0)" text-anchor="end" dominant-baseline="middle" font-size="14" fill="#131300" y="0" x="0">200</text><text transform="translate(55.53125190734863, 214.50000000000003) rotate(0)" text-anchor="end" dominant-baseline="middle" font-size="14" fill="#131300" y="0" x="0">180</text><text transform="translate(55.53125190734863, 241.66666666666669) rotate(0)" text-anchor="end" dominant-baseline="middle" font-size="14" fill="#131300" y="0" x="0">160</text><text transform="translate(55.53125190734863, 268.8333333333333) rotate(0)" text-anchor="end" dominant-baseline="middle" font-size="14" fill="#131300" y="0" x="0">140</text><text transform="translate(55.53125190734863, 296) rotate(0)" text-anchor="end" dominant-baseline="middle" font-size="14" fill="#131300" y="0" x="0">120</text><text transform="translate(55.53125190734863, 323.16666666666674) rotate(0)" text-anchor="end" dominant-baseline="middle" font-size="14" fill="#131300" y="0" x="0">100</text><text transform="translate(55.53125190734863, 350.33333333333337) rotate(0)" text-anchor="end" dominant-baseline="middle" font-size="14" fill="#131300" y="0" x="0">80</text><text transform="translate(55.53125190734863, 377.50000000000006) rotate(0)" text-anchor="end" dominant-baseline="middle" font-size="14" fill="#131300" y="0" x="0">60</text><text transform="translate(55.53125190734863, 404.6666666666667) rotate(0)" text-anchor="end" dominant-baseline="middle" font-size="14" fill="#131300" y="0" x="0">40</text><text transform="translate(55.53125190734863, 431.83333333333337) rotate(0)" text-anchor="end" dominant-baseline="middle" font-size="14" fill="#131300" y="0" x="0">20</text><text transform="translate(55.53125190734863, 459) rotate(0)" text-anchor="end" dominant-baseline="middle" font-size="14" fill="#131300" y="0" x="0">0</text></g><g class="ticks"><path stroke-width="2" stroke="#131300" fill="none" d="M 65.53125190734863,51.5 L 60.53125190734863,51.5"/><path stroke-width="2" stroke="#131300" fill="none" d="M 65.53125190734863,78.66666666666666 L 60.53125190734863,78.66666666666666"/><path stroke-width="2" stroke="#131300" fill="none" d="M 65.53125190734863,105.83333333333331 L 60.53125190734863,105.83333333333331"/><path stroke-width="2" stroke="#131300" fill="none" d="M 65.53125190734863,133 L 60.53125190734863,133"/><path stroke-width="2" stroke="#131300" fill="none" d="M 65.53125190734863,160.16666666666669 L 60.53125190734863,160.16666666666669"/><path stroke-width="2" stroke="#131300" fill="none" d="M 65.53125190734863,187.33333333333337 L 60.53125190734863,187.33333333333337"/><path stroke-width="2" stroke="#131300" fill="none" d="M 65.53125190734863,214.50000000000003 L 60.53125190734863,214.50000000000003"/><path stroke-width="2" stroke="#131300" fill="none" d="M 65.53125190734863,241.66666666666669 L 60.53125190734863,241.66666666666669"/><path stroke-width="2" stroke="#131300" fill="none" d="M 65.53125190734863,268.8333333333333 L 60.53125190734863,268.8333333333333"/><path stroke-width="2" stroke="#131300" fill="none" d="M 65.53125190734863,296 L 60.53125190734863,296"/><path stroke-width="2" stroke="#131300" fill="none" d="M 65.53125190734863,323.16666666666674 L 60.53125190734863,323.16666666666674"/><path stroke-width="2" stroke="#131300" fill="none" d="M 65.53125190734863,350.33333333333337 L 60.53125190734863,350.33333333333337"/><path stroke-width="2" stroke="#131300" fill="none" d="M 65.53125190734863,377.50000000000006 L 60.53125190734863,377.50000000000006"/><path stroke-width="2" stroke="#131300" fill="none" d="M 65.53125190734863,404.6666666666667 L 60.53125190734863,404.6666666666667"/><path stroke-width="2" stroke="#131300" fill="none" d="M 65.53125190734863,431.83333333333337 L 60.53125190734863,431.83333333333337"/><path stroke-width="2" stroke="#131300" fill="none" d="M 65.53125190734863,459 L 60.53125190734863,459"/></g><g class="title"><text transform="translate(5, 255.25) rotate(270)" text-anchor="middle" dominant-baseline="text-before-edge" font-size="16" fill="#131300" y="0" x="0">ROI Percentage</text></g></g></g><g class="mermaid-tmp-group"/></svg>