<svg aria-roledescription="timeline" role="graphics-document document" viewBox="0 -61 1190 585.2781372070312" style="max-width: 1190px; background-color: transparent;" xmlns:xlink="http://www.w3.org/1999/xlink" xmlns="http://www.w3.org/2000/svg" width="100%" id="my-svg"><style>#my-svg{font-family:"trebuchet ms",verdana,arial,sans-serif;font-size:16px;fill:#333;}#my-svg .error-icon{fill:#552222;}#my-svg .error-text{fill:#552222;stroke:#552222;}#my-svg .edge-thickness-normal{stroke-width:2px;}#my-svg .edge-thickness-thick{stroke-width:3.5px;}#my-svg .edge-pattern-solid{stroke-dasharray:0;}#my-svg .edge-pattern-dashed{stroke-dasharray:3;}#my-svg .edge-pattern-dotted{stroke-dasharray:2;}#my-svg .marker{fill:#333333;stroke:#333333;}#my-svg .marker.cross{stroke:#333333;}#my-svg svg{font-family:"trebuchet ms",verdana,arial,sans-serif;font-size:16px;}#my-svg .edge{stroke-width:3;}#my-svg .section--1 rect,#my-svg .section--1 path,#my-svg .section--1 circle,#my-svg .section--1 path{fill:hsl(240, 100%, 76.2745098039%);}#my-svg .section--1 text{fill:#ffffff;}#my-svg .node-icon--1{font-size:40px;color:#ffffff;}#my-svg .section-edge--1{stroke:hsl(240, 100%, 76.2745098039%);}#my-svg .edge-depth--1{stroke-width:17;}#my-svg .section--1 line{stroke:hsl(60, 100%, 86.2745098039%);stroke-width:3;}#my-svg .lineWrapper line{stroke:#ffffff;}#my-svg .disabled,#my-svg .disabled circle,#my-svg .disabled text{fill:lightgray;}#my-svg .disabled text{fill:#efefef;}#my-svg .section-0 rect,#my-svg .section-0 path,#my-svg .section-0 circle,#my-svg .section-0 path{fill:hsl(60, 100%, 73.5294117647%);}#my-svg .section-0 text{fill:black;}#my-svg .node-icon-0{font-size:40px;color:black;}#my-svg .section-edge-0{stroke:hsl(60, 100%, 73.5294117647%);}#my-svg .edge-depth-0{stroke-width:14;}#my-svg .section-0 line{stroke:hsl(240, 100%, 83.5294117647%);stroke-width:3;}#my-svg .lineWrapper line{stroke:black;}#my-svg .disabled,#my-svg .disabled circle,#my-svg .disabled text{fill:lightgray;}#my-svg .disabled text{fill:#efefef;}#my-svg .section-1 rect,#my-svg .section-1 path,#my-svg .section-1 circle,#my-svg .section-1 path{fill:hsl(80, 100%, 76.2745098039%);}#my-svg .section-1 text{fill:black;}#my-svg .node-icon-1{font-size:40px;color:black;}#my-svg .section-edge-1{stroke:hsl(80, 100%, 76.2745098039%);}#my-svg .edge-depth-1{stroke-width:11;}#my-svg .section-1 line{stroke:hsl(260, 100%, 86.2745098039%);stroke-width:3;}#my-svg .lineWrapper line{stroke:black;}#my-svg .disabled,#my-svg .disabled circle,#my-svg .disabled text{fill:lightgray;}#my-svg .disabled text{fill:#efefef;}#my-svg .section-2 rect,#my-svg .section-2 path,#my-svg .section-2 circle,#my-svg .section-2 path{fill:hsl(270, 100%, 76.2745098039%);}#my-svg .section-2 text{fill:#ffffff;}#my-svg .node-icon-2{font-size:40px;color:#ffffff;}#my-svg .section-edge-2{stroke:hsl(270, 100%, 76.2745098039%);}#my-svg .edge-depth-2{stroke-width:8;}#my-svg .section-2 line{stroke:hsl(90, 100%, 86.2745098039%);stroke-width:3;}#my-svg .lineWrapper line{stroke:#ffffff;}#my-svg .disabled,#my-svg .disabled circle,#my-svg .disabled text{fill:lightgray;}#my-svg .disabled text{fill:#efefef;}#my-svg .section-3 rect,#my-svg .section-3 path,#my-svg .section-3 circle,#my-svg .section-3 path{fill:hsl(300, 100%, 76.2745098039%);}#my-svg .section-3 text{fill:black;}#my-svg .node-icon-3{font-size:40px;color:black;}#my-svg .section-edge-3{stroke:hsl(300, 100%, 76.2745098039%);}#my-svg .edge-depth-3{stroke-width:5;}#my-svg .section-3 line{stroke:hsl(120, 100%, 86.2745098039%);stroke-width:3;}#my-svg .lineWrapper line{stroke:black;}#my-svg .disabled,#my-svg .disabled circle,#my-svg .disabled text{fill:lightgray;}#my-svg .disabled text{fill:#efefef;}#my-svg .section-4 rect,#my-svg .section-4 path,#my-svg .section-4 circle,#my-svg .section-4 path{fill:hsl(330, 100%, 76.2745098039%);}#my-svg .section-4 text{fill:black;}#my-svg .node-icon-4{font-size:40px;color:black;}#my-svg .section-edge-4{stroke:hsl(330, 100%, 76.2745098039%);}#my-svg .edge-depth-4{stroke-width:2;}#my-svg .section-4 line{stroke:hsl(150, 100%, 86.2745098039%);stroke-width:3;}#my-svg .lineWrapper line{stroke:black;}#my-svg .disabled,#my-svg .disabled circle,#my-svg .disabled text{fill:lightgray;}#my-svg .disabled text{fill:#efefef;}#my-svg .section-5 rect,#my-svg .section-5 path,#my-svg .section-5 circle,#my-svg .section-5 path{fill:hsl(0, 100%, 76.2745098039%);}#my-svg .section-5 text{fill:black;}#my-svg .node-icon-5{font-size:40px;color:black;}#my-svg .section-edge-5{stroke:hsl(0, 100%, 76.2745098039%);}#my-svg .edge-depth-5{stroke-width:-1;}#my-svg .section-5 line{stroke:hsl(180, 100%, 86.2745098039%);stroke-width:3;}#my-svg .lineWrapper line{stroke:black;}#my-svg .disabled,#my-svg .disabled circle,#my-svg .disabled text{fill:lightgray;}#my-svg .disabled text{fill:#efefef;}#my-svg .section-6 rect,#my-svg .section-6 path,#my-svg .section-6 circle,#my-svg .section-6 path{fill:hsl(30, 100%, 76.2745098039%);}#my-svg .section-6 text{fill:black;}#my-svg .node-icon-6{font-size:40px;color:black;}#my-svg .section-edge-6{stroke:hsl(30, 100%, 76.2745098039%);}#my-svg .edge-depth-6{stroke-width:-4;}#my-svg .section-6 line{stroke:hsl(210, 100%, 86.2745098039%);stroke-width:3;}#my-svg .lineWrapper line{stroke:black;}#my-svg .disabled,#my-svg .disabled circle,#my-svg .disabled text{fill:lightgray;}#my-svg .disabled text{fill:#efefef;}#my-svg .section-7 rect,#my-svg .section-7 path,#my-svg .section-7 circle,#my-svg .section-7 path{fill:hsl(90, 100%, 76.2745098039%);}#my-svg .section-7 text{fill:black;}#my-svg .node-icon-7{font-size:40px;color:black;}#my-svg .section-edge-7{stroke:hsl(90, 100%, 76.2745098039%);}#my-svg .edge-depth-7{stroke-width:-7;}#my-svg .section-7 line{stroke:hsl(270, 100%, 86.2745098039%);stroke-width:3;}#my-svg .lineWrapper line{stroke:black;}#my-svg .disabled,#my-svg .disabled circle,#my-svg .disabled text{fill:lightgray;}#my-svg .disabled text{fill:#efefef;}#my-svg .section-8 rect,#my-svg .section-8 path,#my-svg .section-8 circle,#my-svg .section-8 path{fill:hsl(150, 100%, 76.2745098039%);}#my-svg .section-8 text{fill:black;}#my-svg .node-icon-8{font-size:40px;color:black;}#my-svg .section-edge-8{stroke:hsl(150, 100%, 76.2745098039%);}#my-svg .edge-depth-8{stroke-width:-10;}#my-svg .section-8 line{stroke:hsl(330, 100%, 86.2745098039%);stroke-width:3;}#my-svg .lineWrapper line{stroke:black;}#my-svg .disabled,#my-svg .disabled circle,#my-svg .disabled text{fill:lightgray;}#my-svg .disabled text{fill:#efefef;}#my-svg .section-9 rect,#my-svg .section-9 path,#my-svg .section-9 circle,#my-svg .section-9 path{fill:hsl(180, 100%, 76.2745098039%);}#my-svg .section-9 text{fill:black;}#my-svg .node-icon-9{font-size:40px;color:black;}#my-svg .section-edge-9{stroke:hsl(180, 100%, 76.2745098039%);}#my-svg .edge-depth-9{stroke-width:-13;}#my-svg .section-9 line{stroke:hsl(0, 100%, 86.2745098039%);stroke-width:3;}#my-svg .lineWrapper line{stroke:black;}#my-svg .disabled,#my-svg .disabled circle,#my-svg .disabled text{fill:lightgray;}#my-svg .disabled text{fill:#efefef;}#my-svg .section-10 rect,#my-svg .section-10 path,#my-svg .section-10 circle,#my-svg .section-10 path{fill:hsl(210, 100%, 76.2745098039%);}#my-svg .section-10 text{fill:black;}#my-svg .node-icon-10{font-size:40px;color:black;}#my-svg .section-edge-10{stroke:hsl(210, 100%, 76.2745098039%);}#my-svg .edge-depth-10{stroke-width:-16;}#my-svg .section-10 line{stroke:hsl(30, 100%, 86.2745098039%);stroke-width:3;}#my-svg .lineWrapper line{stroke:black;}#my-svg .disabled,#my-svg .disabled circle,#my-svg .disabled text{fill:lightgray;}#my-svg .disabled text{fill:#efefef;}#my-svg .section-root rect,#my-svg .section-root path,#my-svg .section-root circle{fill:hsl(240, 100%, 46.2745098039%);}#my-svg .section-root text{fill:#ffffff;}#my-svg .icon-container{height:100%;display:flex;justify-content:center;align-items:center;}#my-svg .edge{fill:none;}#my-svg .eventWrapper{filter:brightness(120%);}#my-svg :root{--mermaid-font-family:"trebuchet ms",verdana,arial,sans-serif;}</style><g/><g/><defs><marker orient="auto" markerHeight="4" markerWidth="6" refY="2" refX="5" id="arrowhead"><path d="M 0,0 V 4 L6,2 Z"/></marker></defs><g transform="translate(100, 50)" class="taskWrapper"><g class="timeline-node section--1"><g><path d="M0 60.815625 v-55.815625 q0,-5 5,-5 h180 q5,0 5,5 v60.815625 H0 Z" class="node-bkg node-undefined" id="node-undefined"/><line y2="65.815625" x2="190" y1="65.815625" x1="0" class="node-line--1"/></g><g transform="translate(95, 10)"><text text-anchor="middle" dominant-baseline="middle" alignment-baseline="middle" dy="1em"><tspan dy="1em" x="0">2016</tspan></text></g></g></g><g class="lineWrapper"><line stroke-dasharray="5,5" marker-end="url(#arrowhead)" stroke="black" stroke-width="2" y2="474.2781219482422" x2="195" y1="115.815625" x1="195"/></g><g transform="translate(100, 250)" class="eventWrapper"><g class="timeline-node section--1"><g><path d="M0 45 v-40 q0,-5 5,-5 h180 q5,0 5,5 v45 H0 Z" class="node-bkg node-undefined" id="node-undefined"/><line y2="50" x2="190" y1="50" x1="0" class="node-line--1"/></g><g transform="translate(95, 10)"><text text-anchor="middle" dominant-baseline="middle" alignment-baseline="middle" dy="1em"><tspan dy="1em" x="0">Basic   ML   Models</tspan></text></g></g></g><g transform="translate(100, 310)" class="eventWrapper"><g class="timeline-node section--1"><g><path d="M0 45 v-40 q0,-5 5,-5 h180 q5,0 5,5 v45 H0 Z" class="node-bkg node-undefined" id="node-undefined"/><line y2="50" x2="190" y1="50" x1="0" class="node-line--1"/></g><g transform="translate(95, 10)"><text text-anchor="middle" dominant-baseline="middle" alignment-baseline="middle" dy="1em"><tspan dy="1em" x="0">Rule-based   Systems</tspan></text></g></g></g><g transform="translate(100, 370)" class="eventWrapper"><g class="timeline-node section--1"><g><path d="M0 45 v-40 q0,-5 5,-5 h180 q5,0 5,5 v45 H0 Z" class="node-bkg node-undefined" id="node-undefined"/><line y2="50" x2="190" y1="50" x1="0" class="node-line--1"/></g><g transform="translate(95, 10)"><text text-anchor="middle" dominant-baseline="middle" alignment-baseline="middle" dy="1em"><tspan dy="1em" x="0">Simple   Automation</tspan></text></g></g></g><g transform="translate(300, 50)" class="taskWrapper"><g class="timeline-node section-0"><g><path d="M0 60.815625 v-55.815625 q0,-5 5,-5 h180 q5,0 5,5 v60.815625 H0 Z" class="node-bkg node-undefined" id="node-undefined"/><line y2="65.815625" x2="190" y1="65.815625" x1="0" class="node-line-0"/></g><g transform="translate(95, 10)"><text text-anchor="middle" dominant-baseline="middle" alignment-baseline="middle" dy="1em"><tspan dy="1em" x="0">2018</tspan></text></g></g></g><g class="lineWrapper"><line stroke-dasharray="5,5" marker-end="url(#arrowhead)" stroke="black" stroke-width="2" y2="474.2781219482422" x2="395" y1="115.815625" x1="395"/></g><g transform="translate(300, 250)" class="eventWrapper"><g class="timeline-node section-0"><g><path d="M0 45 v-40 q0,-5 5,-5 h180 q5,0 5,5 v45 H0 Z" class="node-bkg node-undefined" id="node-undefined"/><line y2="50" x2="190" y1="50" x1="0" class="node-line-0"/></g><g transform="translate(95, 10)"><text text-anchor="middle" dominant-baseline="middle" alignment-baseline="middle" dy="1em"><tspan dy="1em" x="0">Deep   Learning</tspan></text></g></g></g><g transform="translate(300, 310)" class="eventWrapper"><g class="timeline-node section-0"><g><path d="M0 45 v-40 q0,-5 5,-5 h180 q5,0 5,5 v45 H0 Z" class="node-bkg node-undefined" id="node-undefined"/><line y2="50" x2="190" y1="50" x1="0" class="node-line-0"/></g><g transform="translate(95, 10)"><text text-anchor="middle" dominant-baseline="middle" alignment-baseline="middle" dy="1em"><tspan dy="1em" x="0">Computer   Vision</tspan></text></g></g></g><g transform="translate(300, 370)" class="eventWrapper"><g class="timeline-node section-0"><g><path d="M0 45 v-40 q0,-5 5,-5 h180 q5,0 5,5 v45 H0 Z" class="node-bkg node-undefined" id="node-undefined"/><line y2="50" x2="190" y1="50" x1="0" class="node-line-0"/></g><g transform="translate(95, 10)"><text text-anchor="middle" dominant-baseline="middle" alignment-baseline="middle" dy="1em"><tspan dy="1em" x="0">NLP   Emergence</tspan></text></g></g></g><g transform="translate(500, 50)" class="taskWrapper"><g class="timeline-node section-1"><g><path d="M0 60.815625 v-55.815625 q0,-5 5,-5 h180 q5,0 5,5 v60.815625 H0 Z" class="node-bkg node-undefined" id="node-undefined"/><line y2="65.815625" x2="190" y1="65.815625" x1="0" class="node-line-1"/></g><g transform="translate(95, 10)"><text text-anchor="middle" dominant-baseline="middle" alignment-baseline="middle" dy="1em"><tspan dy="1em" x="0">2020</tspan></text></g></g></g><g class="lineWrapper"><line stroke-dasharray="5,5" marker-end="url(#arrowhead)" stroke="black" stroke-width="2" y2="474.2781219482422" x2="595" y1="115.815625" x1="595"/></g><g transform="translate(500, 250)" class="eventWrapper"><g class="timeline-node section-1"><g><path d="M0 45 v-40 q0,-5 5,-5 h180 q5,0 5,5 v45 H0 Z" class="node-bkg node-undefined" id="node-undefined"/><line y2="50" x2="190" y1="50" x1="0" class="node-line-1"/></g><g transform="translate(95, 10)"><text text-anchor="middle" dominant-baseline="middle" alignment-baseline="middle" dy="1em"><tspan dy="1em" x="0">Advanced   Analytics</tspan></text></g></g></g><g transform="translate(500, 310)" class="eventWrapper"><g class="timeline-node section-1"><g><path d="M0 45 v-40 q0,-5 5,-5 h180 q5,0 5,5 v45 H0 Z" class="node-bkg node-undefined" id="node-undefined"/><line y2="50" x2="190" y1="50" x1="0" class="node-line-1"/></g><g transform="translate(95, 10)"><text text-anchor="middle" dominant-baseline="middle" alignment-baseline="middle" dy="1em"><tspan dy="1em" x="0">Predictive   Models</tspan></text></g></g></g><g transform="translate(500, 370)" class="eventWrapper"><g class="timeline-node section-1"><g><path d="M0 45 v-40 q0,-5 5,-5 h180 q5,0 5,5 v45 H0 Z" class="node-bkg node-undefined" id="node-undefined"/><line y2="50" x2="190" y1="50" x1="0" class="node-line-1"/></g><g transform="translate(95, 10)"><text text-anchor="middle" dominant-baseline="middle" alignment-baseline="middle" dy="1em"><tspan dy="1em" x="0">Process   Mining</tspan></text></g></g></g><g transform="translate(700, 50)" class="taskWrapper"><g class="timeline-node section-2"><g><path d="M0 60.815625 v-55.815625 q0,-5 5,-5 h180 q5,0 5,5 v60.815625 H0 Z" class="node-bkg node-undefined" id="node-undefined"/><line y2="65.815625" x2="190" y1="65.815625" x1="0" class="node-line-2"/></g><g transform="translate(95, 10)"><text text-anchor="middle" dominant-baseline="middle" alignment-baseline="middle" dy="1em"><tspan dy="1em" x="0">2023</tspan></text></g></g></g><g class="lineWrapper"><line stroke-dasharray="5,5" marker-end="url(#arrowhead)" stroke="black" stroke-width="2" y2="474.2781219482422" x2="795" y1="115.815625" x1="795"/></g><g transform="translate(700, 250)" class="eventWrapper"><g class="timeline-node section-2"><g><path d="M0 58.41562347412109 v-53.41562347412109 q0,-5 5,-5 h180 q5,0 5,5 v58.41562347412109 H0 Z" class="node-bkg node-undefined" id="node-undefined"/><line y2="63.41562347412109" x2="190" y1="63.41562347412109" x1="0" class="node-line-2"/></g><g transform="translate(95, 10)"><text text-anchor="middle" dominant-baseline="middle" alignment-baseline="middle" dy="1em"><tspan dy="1em" x="0">Large   Language</tspan><tspan dy="1.1em" x="0">Models</tspan></text></g></g></g><g transform="translate(700, 323.4156234741211)" class="eventWrapper"><g class="timeline-node section-2"><g><path d="M0 45 v-40 q0,-5 5,-5 h180 q5,0 5,5 v45 H0 Z" class="node-bkg node-undefined" id="node-undefined"/><line y2="50" x2="190" y1="50" x1="0" class="node-line-2"/></g><g transform="translate(95, 10)"><text text-anchor="middle" dominant-baseline="middle" alignment-baseline="middle" dy="1em"><tspan dy="1em" x="0">Generative   AI</tspan></text></g></g></g><g transform="translate(700, 383.4156234741211)" class="eventWrapper"><g class="timeline-node section-2"><g><path d="M0 58.41562347412109 v-53.41562347412109 q0,-5 5,-5 h180 q5,0 5,5 v58.41562347412109 H0 Z" class="node-bkg node-undefined" id="node-undefined"/><line y2="63.41562347412109" x2="190" y1="63.41562347412109" x1="0" class="node-line-2"/></g><g transform="translate(95, 10)"><text text-anchor="middle" dominant-baseline="middle" alignment-baseline="middle" dy="1em"><tspan dy="1em" x="0">Conversational</tspan><tspan dy="1.1em" x="0">Interfaces</tspan></text></g></g></g><g transform="translate(900, 50)" class="taskWrapper"><g class="timeline-node section-3"><g><path d="M0 60.815625 v-55.815625 q0,-5 5,-5 h180 q5,0 5,5 v60.815625 H0 Z" class="node-bkg node-undefined" id="node-undefined"/><line y2="65.815625" x2="190" y1="65.815625" x1="0" class="node-line-3"/></g><g transform="translate(95, 10)"><text text-anchor="middle" dominant-baseline="middle" alignment-baseline="middle" dy="1em"><tspan dy="1em" x="0">2025</tspan></text></g></g></g><g class="lineWrapper"><line stroke-dasharray="5,5" marker-end="url(#arrowhead)" stroke="black" stroke-width="2" y2="474.2781219482422" x2="995" y1="115.815625" x1="995"/></g><g transform="translate(900, 250)" class="eventWrapper"><g class="timeline-node section-3"><g><path d="M0 45 v-40 q0,-5 5,-5 h180 q5,0 5,5 v45 H0 Z" class="node-bkg node-undefined" id="node-undefined"/><line y2="50" x2="190" y1="50" x1="0" class="node-line-3"/></g><g transform="translate(95, 10)"><text text-anchor="middle" dominant-baseline="middle" alignment-baseline="middle" dy="1em"><tspan dy="1em" x="0">AI   Agents</tspan></text></g></g></g><g transform="translate(900, 310)" class="eventWrapper"><g class="timeline-node section-3"><g><path d="M0 58.41562347412109 v-53.41562347412109 q0,-5 5,-5 h180 q5,0 5,5 v58.41562347412109 H0 Z" class="node-bkg node-undefined" id="node-undefined"/><line y2="63.41562347412109" x2="190" y1="63.41562347412109" x1="0" class="node-line-3"/></g><g transform="translate(95, 10)"><text text-anchor="middle" dominant-baseline="middle" alignment-baseline="middle" dy="1em"><tspan dy="1em" x="0">Autonomous</tspan><tspan dy="1.1em" x="0">Systems</tspan></text></g></g></g><g transform="translate(900, 383.4156234741211)" class="eventWrapper"><g class="timeline-node section-3"><g><path d="M0 45 v-40 q0,-5 5,-5 h180 q5,0 5,5 v45 H0 Z" class="node-bkg node-undefined" id="node-undefined"/><line y2="50" x2="190" y1="50" x1="0" class="node-line-3"/></g><g transform="translate(95, 10)"><text text-anchor="middle" dominant-baseline="middle" alignment-baseline="middle" dy="1em"><tspan dy="1em" x="0">Integrated   Workflows</tspan></text></g></g></g><text y="20" font-weight="bold" font-size="4ex" x="445">AI Evolution in Business Context</text><g class="lineWrapper"><line marker-end="url(#arrowhead)" stroke="black" stroke-width="4" y2="165.815625" x2="1140" y1="165.815625" x1="50"/></g></svg>