<svg aria-roledescription="pie" role="graphics-document document" style="max-width: 689.328px; background-color: transparent;" viewBox="0 0 689.328125 450" xmlns:xlink="http://www.w3.org/1999/xlink" xmlns="http://www.w3.org/2000/svg" width="100%" id="my-svg"><style>#my-svg{font-family:"trebuchet ms",verdana,arial,sans-serif;font-size:18px;fill:#333;}#my-svg .error-icon{fill:hsl(180, 0%, 100%);}#my-svg .error-text{fill:rgb(0, 0, 0);stroke:rgb(0, 0, 0);}#my-svg .edge-thickness-normal{stroke-width:2px;}#my-svg .edge-thickness-thick{stroke-width:3.5px;}#my-svg .edge-pattern-solid{stroke-dasharray:0;}#my-svg .edge-pattern-dashed{stroke-dasharray:3;}#my-svg .edge-pattern-dotted{stroke-dasharray:2;}#my-svg .marker{fill:#0b0b0b;stroke:#0b0b0b;}#my-svg .marker.cross{stroke:#0b0b0b;}#my-svg svg{font-family:"trebuchet ms",verdana,arial,sans-serif;font-size:18px;}#my-svg .pieCircle{stroke:black;stroke-width:2px;opacity:0.7;}#my-svg .pieOuterCircle{stroke:black;stroke-width:2px;fill:none;}#my-svg .pieTitleText{text-anchor:middle;font-size:25px;fill:#333;font-family:"trebuchet ms",verdana,arial,sans-serif;}#my-svg .slice{font-family:"trebuchet ms",verdana,arial,sans-serif;fill:#333;font-size:17px;}#my-svg .legend text{fill:#333;font-family:"trebuchet ms",verdana,arial,sans-serif;font-size:17px;}#my-svg :root{--mermaid-font-family:"trebuchet ms",verdana,arial,sans-serif;}</style><g/><g transform="translate(225,225)"><circle class="pieOuterCircle" r="186" cy="0" cx="0"/><path class="pieCircle" fill="#4285f4" d="M0,-185A185,185,0,1,1,-4.369,184.948L0,0Z"/><path class="pieCircle" fill="#34a853" d="M-4.369,184.948A185,185,0,0,1,-184.987,-2.185L0,0Z"/><path class="pieCircle" fill="#fbbc04" d="M-184.987,-2.185A185,185,0,0,1,-120.397,-140.462L0,0Z"/><path class="pieCircle" fill="#ea4335" d="M-120.397,-140.462A185,185,0,0,1,0,-185L0,0Z"/><text style="text-anchor: middle;" class="slice" transform="translate(138.740323140845,1.6386685979521083)">50%</text><text style="text-anchor: middle;" class="slice" transform="translate(-99.83369033297194,96.35765031641373)">25%</text><text style="text-anchor: middle;" class="slice" transform="translate(-125.71170353107688,-58.72078077916395)">14%</text><text style="text-anchor: middle;" class="slice" transform="translate(-48.1390293459507,-130.13145797089072)">11%</text><text class="pieTitleText" y="-200" x="0">Attack Cost Distribution (Larger View)</text><g transform="translate(216,-44)" class="legend"><rect style="fill: rgb(66, 133, 244); stroke: rgb(66, 133, 244);" height="18" width="18"/><text y="14" x="22">Honest Stake (67%)</text></g><g transform="translate(216,-22)" class="legend"><rect style="fill: rgb(52, 168, 83); stroke: rgb(52, 168, 83);" height="18" width="18"/><text y="14" x="22">Attack Threshold (33%)</text></g><g transform="translate(216,0)" class="legend"><rect style="fill: rgb(251, 188, 4); stroke: rgb(251, 188, 4);" height="18" width="18"/><text y="14" x="22">Slashing Penalty (18%)</text></g><g transform="translate(216,22)" class="legend"><rect style="fill: rgb(234, 67, 53); stroke: rgb(234, 67, 53);" height="18" width="18"/><text y="14" x="22">Economic Buffer (15%)</text></g></g></svg>